<?xml version="1.0" encoding="UTF-8" standalone="no"?>
<!-- Created with Inkscape (http://www.inkscape.org/) -->

<svg
   xmlns:dc="http://purl.org/dc/elements/1.1/"
   xmlns:cc="http://creativecommons.org/ns#"
   xmlns:rdf="http://www.w3.org/1999/02/22-rdf-syntax-ns#"
   xmlns:svg="http://www.w3.org/2000/svg"
   xmlns="http://www.w3.org/2000/svg"
   xmlns:sodipodi="http://sodipodi.sourceforge.net/DTD/sodipodi-0.dtd"
   xmlns:inkscape="http://www.inkscape.org/namespaces/inkscape"
   width="800"
   height="600"
   id="svg2"
   version="1.1"
   inkscape:version="0.48.4 r9939"
   inkscape:export-filename="/home/frode/Dropbox/mogtatoo/graphics/level.png"
   inkscape:export-xdpi="90"
   inkscape:export-ydpi="90"
   sodipodi:docname="New document 1">
  <defs
     id="defs4" />
  <sodipodi:namedview
     id="base"
     pagecolor="#4b7c25"
     bordercolor="#666666"
     borderopacity="1.0"
     inkscape:pageopacity="1"
     inkscape:pageshadow="2"
     inkscape:zoom="0.35"
     inkscape:cx="582.66837"
     inkscape:cy="250.7662"
     inkscape:document-units="px"
     inkscape:current-layer="layer1"
     showgrid="false"
     inkscape:showpageshadow="false"
     inkscape:window-width="1024"
     inkscape:window-height="576"
     inkscape:window-x="0"
     inkscape:window-y="24"
     inkscape:window-maximized="1" />
  <metadata
     id="metadata7">
    <rdf:RDF>
      <cc:Work
         rdf:about="">
        <dc:format>image/svg+xml</dc:format>
        <dc:type
           rdf:resource="http://purl.org/dc/dcmitype/StillImage" />
        <dc:title></dc:title>
      </cc:Work>
    </rdf:RDF>
  </metadata>
  <g
     inkscape:label="Layer 1"
     inkscape:groupmode="layer"
     id="layer1"
     transform="translate(0,-452.36218)">
    <path
       style="color:#000000;fill:#53575c;fill-opacity:1;fill-rule:nonzero;stroke:#000000;stroke-width:8.0336132;stroke-linecap:round;stroke-linejoin:round;stroke-miterlimit:4;stroke-opacity:0.13242008;stroke-dasharray:none;stroke-dashoffset:0;marker:none;visibility:visible;display:inline;overflow:visible;enable-background:accumulate"
       d="m 696.99715,152.0069 c -4.75902,0 -8.58592,2.6793 -8.58592,5.975 l 0,340.47458 -434.26703,0 0,-309.34433 c 0,-11.16522 -3.77067,-20.13424 -8.4855,-20.13424 l -138.83091,0 c -4.71483,0 -8.485499,8.96902 -8.485499,20.13424 l 0,309.34433 -419.706101,0 c -11.16522,0 -20.13426,3.77065 -20.13426,8.48551 l 0,138.78068 c 0,4.71485 8.96904,8.53571 20.13426,8.53571 l 419.706101,0 0,874.15762 c 0,11.1652 3.770669,20.1343 8.485499,20.1343 l 138.83091,0 c 4.71483,0 8.4855,-8.9691 8.4855,-20.1343 l 0,-500.8456 86.91365,0 0,119.6506 c 0,3.3482 13.94894,6.0252 31.28088,6.0252 l 510.1847,0 c 17.332,0 31.3311,-2.677 31.3311,-6.0252 l 0,-401.63047 c 0,-3.34824 -13.9991,-6.02521 -31.3311,-6.02521 l -510.1847,0 c -17.33194,0 -31.28088,2.67697 -31.28088,6.02521 l 0,126.17795 -86.91365,0 0,-217.5101 763.7959,0 c 11.1652,0 20.1342,-3.82086 20.1342,-8.53571 l 0,-138.78068 c 0,-4.71486 -8.969,-8.48551 -20.1342,-8.48551 l -172.27087,0 0,-340.47458 c 0,-3.2957 -3.8269,-5.975 -8.5859,-5.975 l -140.08618,0 z"
       id="rect3263"
       inkscape:connector-curvature="0" />
    <path
       style="fill:none;stroke:#a6a010;stroke-width:8.0336132;stroke-linecap:butt;stroke-linejoin:miter;stroke-miterlimit:4;stroke-opacity:1;stroke-dasharray:24.10084139, 24.10084139;stroke-dashoffset:0"
       d="m -328.51864,574.45079 421.989131,0"
       id="path4069"
       inkscape:connector-curvature="0" />
    <path
       inkscape:connector-curvature="0"
       id="path4071"
       d="m 263.67347,574.45079 421.98911,0"
       style="fill:none;stroke:#a6a010;stroke-width:8.0336132;stroke-linecap:butt;stroke-linejoin:miter;stroke-miterlimit:4;stroke-opacity:1;stroke-dasharray:24.10084139, 24.10084139;stroke-dashoffset:0" />
    <path
       style="fill:none;stroke:#a6a010;stroke-width:8.0336132;stroke-linecap:butt;stroke-linejoin:miter;stroke-miterlimit:4;stroke-opacity:1;stroke-dasharray:24.10084139, 24.10084139;stroke-dashoffset:0"
       d="m 853.57023,574.45079 421.98917,0"
       id="path4073"
       inkscape:connector-curvature="0" />
    <path
       inkscape:connector-curvature="0"
       id="path4075"
       d="m 766.17347,88.018057 0,421.989113"
       style="fill:none;stroke:#a6a010;stroke-width:8.0336132;stroke-linecap:butt;stroke-linejoin:miter;stroke-miterlimit:4;stroke-opacity:1;stroke-dasharray:24.10084139, 24.10084139;stroke-dashoffset:0" />
    <path
       style="fill:none;stroke:#a6a010;stroke-width:8.0336132;stroke-linecap:butt;stroke-linejoin:miter;stroke-miterlimit:4;stroke-opacity:1;stroke-dasharray:24.10084139, 24.10084139;stroke-dashoffset:0"
       d="m 176.27668,88.018057 0,421.989113"
       id="path4077"
       inkscape:connector-curvature="0" />
    <path
       inkscape:connector-curvature="0"
       id="path4079"
       d="m 176.27668,663.94879 0,642.72801"
       style="fill:none;stroke:#a6a010;stroke-width:8.0336132;stroke-linecap:butt;stroke-linejoin:miter;stroke-miterlimit:4;stroke-opacity:1;stroke-dasharray:24.10084152, 24.10084152;stroke-dashoffset:0" />
  </g>
</svg>
