<?xml version="1.0" encoding="UTF-8" standalone="no"?>
<!-- Created with Inkscape (http://www.inkscape.org/) -->

<svg
   xmlns:dc="http://purl.org/dc/elements/1.1/"
   xmlns:cc="http://creativecommons.org/ns#"
   xmlns:rdf="http://www.w3.org/1999/02/22-rdf-syntax-ns#"
   xmlns:svg="http://www.w3.org/2000/svg"
   xmlns="http://www.w3.org/2000/svg"
   xmlns:sodipodi="http://sodipodi.sourceforge.net/DTD/sodipodi-0.dtd"
   xmlns:inkscape="http://www.inkscape.org/namespaces/inkscape"
   width="128mm"
   height="128mm"
   viewBox="0 0 453.54331 453.54331"
   id="svg2"
   version="1.1"
   inkscape:version="0.91 r"
   sodipodi:docname="icon.svg">
  <defs
     id="defs4" />
  <sodipodi:namedview
     id="base"
     pagecolor="#ffffff"
     bordercolor="#666666"
     borderopacity="1.0"
     inkscape:pageopacity="0.0"
     inkscape:pageshadow="2"
     inkscape:zoom="0.099838867"
     inkscape:cx="162.93392"
     inkscape:cy="169.59559"
     inkscape:document-units="px"
     inkscape:current-layer="layer1"
     showgrid="false"
     showborder="true"
     inkscape:showpageshadow="false"
     inkscape:window-width="1920"
     inkscape:window-height="1032"
     inkscape:window-x="0"
     inkscape:window-y="24"
     inkscape:window-maximized="1" />
  <metadata
     id="metadata7">
    <rdf:RDF>
      <cc:Work
         rdf:about="">
        <dc:format>image/svg+xml</dc:format>
        <dc:type
           rdf:resource="http://purl.org/dc/dcmitype/StillImage" />
        <dc:title></dc:title>
      </cc:Work>
    </rdf:RDF>
  </metadata>
  <g
     inkscape:label="Layer 1"
     inkscape:groupmode="layer"
     id="layer1"
     transform="translate(0,-598.8189)">
    <path
       style="color:#000000;clip-rule:nonzero;display:inline;overflow:visible;visibility:visible;opacity:1;isolation:auto;mix-blend-mode:normal;color-interpolation:sRGB;color-interpolation-filters:linearRGB;solid-color:#000000;solid-opacity:1;fill:#00002e;fill-opacity:0.50196078;fill-rule:nonzero;stroke:#378b00;stroke-width:0;stroke-linecap:butt;stroke-linejoin:miter;stroke-miterlimit:4;stroke-dasharray:none;stroke-dashoffset:0;stroke-opacity:1;marker:none;color-rendering:auto;image-rendering:auto;shape-rendering:auto;text-rendering:auto;enable-background:accumulate"
       d="M 54.001953 30.353516 L 19.763672 415.9707 L 109.75391 423.96094 L 109.75391 453.42383 L 302.2832 453.42383 L 302.2832 441.05469 L 407.64844 450.41016 L 441.88477 64.791016 L 54.001953 30.353516 z "
       transform="translate(0,598.8189)"
       id="rect4286" />
    <rect
       style="color:#000000;clip-rule:nonzero;display:inline;overflow:visible;visibility:visible;opacity:1;isolation:auto;mix-blend-mode:normal;color-interpolation:sRGB;color-interpolation-filters:linearRGB;solid-color:#000000;solid-opacity:1;fill:#e5bc58;fill-opacity:1;fill-rule:nonzero;stroke:#378b00;stroke-width:0;stroke-linecap:butt;stroke-linejoin:miter;stroke-miterlimit:4;stroke-dasharray:none;stroke-dashoffset:0;stroke-opacity:1;marker:none;color-rendering:auto;image-rendering:auto;shape-rendering:auto;text-rendering:auto;enable-background:accumulate"
       id="rect4264"
       width="389.40988"
       height="387.13516"
       x="98.836174"
       y="594.23297"
       transform="matrix(0.99608161,0.08843883,-0.08843883,0.99608161,0,0)" />
    <rect
       style="color:#000000;clip-rule:nonzero;display:inline;overflow:visible;visibility:visible;opacity:1;isolation:auto;mix-blend-mode:normal;color-interpolation:sRGB;color-interpolation-filters:linearRGB;solid-color:#000000;solid-opacity:1;fill:#e5bc58;fill-opacity:1;fill-rule:nonzero;stroke:#378b00;stroke-width:0;stroke-linecap:butt;stroke-linejoin:miter;stroke-miterlimit:4;stroke-dasharray:none;stroke-dashoffset:0;stroke-opacity:1;marker:none;color-rendering:auto;image-rendering:auto;shape-rendering:auto;text-rendering:auto;enable-background:accumulate"
       id="rect4354"
       width="57.677128"
       height="57.34021"
       x="6.6363006"
       y="952.26624"
       transform="matrix(0.99985859,-0.01681658,0.01681658,0.99985859,0,0)" />
    <path
       style="color:#000000;clip-rule:nonzero;display:inline;overflow:visible;visibility:visible;opacity:1;isolation:auto;mix-blend-mode:normal;color-interpolation:sRGB;color-interpolation-filters:linearRGB;solid-color:#000000;solid-opacity:1;fill:#f40000;fill-opacity:1;fill-rule:nonzero;stroke:none;stroke-width:1;stroke-linecap:butt;stroke-linejoin:miter;stroke-miterlimit:4;stroke-dasharray:none;stroke-dashoffset:0;stroke-opacity:0.60248449;marker:none;color-rendering:auto;image-rendering:auto;shape-rendering:auto;text-rendering:auto;enable-background:accumulate"
       d="M 406.59961 342.38477 L 312.28125 346.67773 L 266.28516 361.10156 L 193.42578 345.72656 L 15.324219 346.16211 L 11.658203 387.44531 L 399.54102 421.88281 L 406.59961 342.38477 z "
       transform="translate(0,598.8189)"
       id="path4340" />
    <path
       style="color:#000000;clip-rule:nonzero;display:inline;overflow:visible;visibility:visible;opacity:1;isolation:auto;mix-blend-mode:normal;color-interpolation:sRGB;color-interpolation-filters:linearRGB;solid-color:#000000;solid-opacity:1;fill:#000000;fill-opacity:1;fill-rule:nonzero;stroke:#378b00;stroke-width:0;stroke-linecap:butt;stroke-linejoin:miter;stroke-miterlimit:4;stroke-dasharray:none;stroke-dashoffset:0;stroke-opacity:1;marker:none;color-rendering:auto;image-rendering:auto;shape-rendering:auto;text-rendering:auto;enable-background:accumulate"
       id="path4152"
       d="m 341.58263,681.8382 c -2.4835,-1.14257 -4.96698,-2.28514 -7.45046,-3.42771 -2.13976,-1.81675 -4.1691,-4.31495 -6.41927,-5.45025 -4.02012,-2.02826 -11.69786,2.56702 -15.46355,3.87185 -3.57704,1.23946 -7.17655,2.19235 -10.76483,3.28853 -8.90995,7.47076 -18.514,-1.16936 -27.50714,2.57108 -4.34306,1.80639 -8.00146,7.83924 -12.1612,10.95859 -3.35035,2.51239 -6.9696,3.3395 -10.31225,5.89403 -3.44059,2.62938 -6.64368,6.40178 -9.96552,9.60266 -3.69757,2.61709 -7.39513,5.23416 -11.0927,7.85125 -3.68819,4.27842 -7.11979,9.645 -11.06461,12.83526 -14.00086,11.32268 -8.15481,-3.49653 -19.89966,16.25653 -10.33617,17.38391 -4.26946,14.0122 -13.68115,33.78712 -2.39875,5.04001 -5.44975,8.59508 -8.17463,12.8926 -3.90823,8.67463 -4.38547,9.25105 -8.06199,19.89491 -1.23625,3.57899 -2.96923,6.80687 -3.47084,11.06202 -0.54841,4.65228 1.03542,9.67226 0.47866,14.32045 -6.84093,57.11075 -2.54761,-22.96837 -4.79548,32.72989 -0.65487,4.34656 -2.04903,8.49628 -1.96465,13.03966 0.13322,7.17202 4.58769,9.04647 6.57775,11.91609 1.94564,2.80565 3.53529,6.55351 5.48449,9.34895 17.00713,24.39043 -1.90865,-6.82335 14.09036,20.5822 6.3731,0.50332 12.15974,6.32885 18.32431,8.66832 3.43618,1.30405 21.49802,4.90346 24.52255,4.86229 28.88155,-0.39312 -1.86878,-6.17333 25.80894,0.64615 9.39368,-4.02876 19.03371,-3.96829 28.49762,-6.7753 5.55391,-1.64729 11.12702,-3.36324 16.55057,-6.30438 5.67431,-3.07712 10.84096,-9.99545 16.65281,-11.70148 39.7997,-11.68273 -7.17299,19.87685 30.08265,-8.7868 14.29722,-4.07413 11.40271,-1.32827 24.58006,-12.54688 3.7622,-3.20297 7.3036,-7.43139 11.08687,-10.52967 8.46693,-6.93385 11.2573,-5.46625 18.65724,-15.6706 1.97399,-2.72211 3.47391,-6.65118 5.2109,-9.97677 -0.1976,-0.75043 -0.73099,-1.44761 -0.59282,-2.25135 0.33555,-1.95224 1.68488,-2.91132 1.83191,-4.95793 0.17152,-2.38772 -0.78581,-4.57932 -0.97569,-6.96127 -0.24337,-3.05315 0.24554,-6.38395 -0.31709,-9.25693 -0.61169,-3.12336 -2.06813,-5.24467 -3.05174,-7.94532 -1.00312,-2.75426 -1.93773,-5.60946 -2.90656,-8.41421 -1.01065,-3.66069 -1.40118,-8.41215 -3.03193,-10.98209 -2.14464,-3.37979 -5.10222,-3.75009 -7.61946,-5.80356 -17.7417,-14.47319 1.14495,-1.58029 -19.34599,-11.18657 -29.48684,-13.82366 9.03432,0.57427 -22.95369,-10.59884 -4.7046,-0.37179 -9.40778,-1.40373 -14.11377,-1.11531 -5.49626,0.33688 -10.93886,2.43459 -16.43084,2.98743 -10.80359,1.08744 -28.09756,-0.66842 -38.67232,3.19527 -25.51783,15.40428 -12.90046,9.73213 -37.78897,17.58855 -0.95155,0.29236 -2.98151,-27.11914 -2.02998,-27.41154 l 0,0 c 6.45439,-6.05775 12.64714,-13.44057 19.36318,-18.17325 10.67208,-7.52046 31.04798,-14.66178 42.34675,-15.81267 6.43341,-0.65529 12.87489,0.9294 19.31353,1.31692 25.02809,1.50641 8.66318,-0.19111 32.12613,2.7948 4.66229,0.64033 9.40713,0.0301 13.98688,1.92091 4.20098,1.73447 8.05708,5.96674 12.10289,8.8509 3.85678,2.74939 7.91255,4.48042 11.604,8.0492 6.5207,6.30396 11.6876,15.30983 16.40419,26.20071 1.79546,4.14581 3.2193,8.90235 4.82893,13.35353 1.85163,3.32371 4.00571,6.05771 5.55486,9.97114 3.01567,7.61804 3.52626,15.21795 4.41313,24.42279 0.45665,4.73982 1.16,9.45195 1.2049,14.28134 0.0495,5.32156 0.51705,11.41725 -0.92481,15.85608 -2.04727,6.30254 -5.84324,9.31569 -8.76486,13.97356 -1.87733,5.87759 -3.09447,12.89444 -5.63203,17.63281 -2.56917,4.79733 -6.12821,6.76696 -9.2102,10.08198 -2.16701,2.3308 -20.6632,22.02255 -22.49843,23.25993 -8.63245,5.82026 -18.34895,3.11993 -26.58743,12.43346 -32.95327,26.03314 3.82961,0.16978 -31.0225,14.7019 -5.79087,2.41461 -11.06796,9.1067 -16.91893,10.81783 -5.57433,1.6302 -11.28212,-2.01768 -16.88829,-0.93088 -40.69572,7.88918 7.32186,9.05953 -30.25862,6.18496 -4.55957,-0.40985 -9.12814,-0.51619 -13.67869,-1.22956 -4.52759,-0.70978 -9.00248,-2.73561 -13.541,-3.03758 -4.73639,-0.31516 -9.4874,2.11173 -14.20473,1.19148 -4.35025,-0.84866 -8.5444,-3.83757 -12.72293,-6.44466 -11.31945,-7.06245 -9.83785,-6.87441 -18.99088,-19.32655 -14.10351,-10.88113 -3.301,-0.58303 -15.74629,-18.1516 -2.70232,-3.81479 -6.06741,-5.80522 -8.40494,-10.51496 -2.27996,-4.59377 -3.46056,-11.0043 -5.07608,-16.64719 -1.50881,-5.27023 -3.81121,-10.05711 -4.29301,-16.07857 -0.44075,-5.50843 1.1304,-10.92217 1.69563,-16.38325 1.75424,-20.24737 1.26375,-12.67267 2.37828,-33.31799 0.31909,-5.91085 -0.21959,-12.26207 0.91385,-17.74206 1.24203,-6.0052 4.32167,-9.73637 5.93364,-15.36504 11.81709,-41.26253 -9.11747,11.48001 12.62861,-38.26968 2.72783,-4.72211 5.50233,-9.33456 8.18346,-14.16631 2.85852,-5.15146 5.55672,-10.66619 8.43247,-15.7777 5.39929,-9.59696 12.76126,-22.08033 19.0543,-29.20732 3.46822,-3.92783 7.23927,-6.62867 10.8925,-9.78492 3.64246,-3.14697 7.32819,-6.08187 10.9923,-9.12281 14.46886,-12.02316 7.13318,-6.31644 22.01108,-17.09874 4.08787,-3.36561 7.83886,-8.48672 12.06598,-11.04025 4.45751,-2.69265 9.16412,-3.22791 13.76694,-4.56472 12.1495,-3.5286 15.9287,-3.91599 27.87587,-6.10019 3.23038,1.83026 6.34237,5.1476 9.69117,5.49081 2.366,0.24248 4.50119,-3.31528 6.85847,-3.79469 2.53828,-0.51623 9.77238,2.58582 12.17156,3.44062 10.44218,3.72045 5.238,0.10336 14.64791,9.79494 0.67566,0.63889 -3.76001,20.10251 -4.43565,19.46362 z"
       inkscape:connector-curvature="0" />
    <path
       style="color:#000000;clip-rule:nonzero;display:inline;overflow:visible;visibility:visible;opacity:1;isolation:auto;mix-blend-mode:normal;color-interpolation:sRGB;color-interpolation-filters:linearRGB;solid-color:#000000;solid-opacity:1;fill:#000000;fill-opacity:1;fill-rule:nonzero;stroke:#378b00;stroke-width:0;stroke-linecap:butt;stroke-linejoin:miter;stroke-miterlimit:4;stroke-dasharray:none;stroke-dashoffset:0;stroke-opacity:1;marker:none;color-rendering:auto;image-rendering:auto;shape-rendering:auto;text-rendering:auto;enable-background:accumulate"
       id="path4156"
       d="m 261.24153,733.54091 c -1.82591,35.72863 -0.2193,-1.82813 -0.73082,29.40922 -0.1184,7.22999 -0.6125,7.37169 -1.04489,14.28418 -0.24253,3.87691 -0.1448,7.84887 -0.54111,11.67281 -0.60658,5.85283 -1.63659,11.48984 -2.45487,17.23476 -0.13355,21.07108 1.26196,18.55514 -3.71389,36.01362 -0.80423,2.82169 -1.95867,5.17064 -3.02459,7.60602 -0.0506,0.11536 -0.11884,-0.19217 -0.17828,-0.28826 -0.25523,-0.81385 -0.85613,-3.38956 -0.76571,-2.44154 0.23171,2.42884 0.80088,4.67196 1.20132,7.00794 -0.37111,8.47565 0.2965,4.61287 -1.95857,11.61976 -0.003,0.15922 -1.10784,0.0884 -1.10539,-0.0708 l 0,0 c -0.48296,-6.572 -0.23432,-3.26948 -0.74631,-9.90744 0.32926,0.1192 1.25804,0.75849 0.98771,0.35752 -1.82315,-2.70413 -2.93438,-1.08018 -3.86712,-6.29462 -1.87925,-10.50624 0.14318,-14.54824 1.73156,-25.8653 0.93587,-6.66789 1.79177,-13.38129 2.68762,-20.07193 1.15829,-5.45048 2.28834,-10.92624 3.47488,-16.35145 0.65032,-2.97349 1.56682,-5.72977 2.0351,-8.84205 1.38028,-9.17325 -1.39742,-3.40968 -1.96374,-14.24106 -0.33041,-6.31954 2.18117,-26.24988 2.765,-31.48595 0.0226,-1.03881 7.23482,-0.38416 7.2121,0.65461 z"
       inkscape:connector-curvature="0" />
    <path
       style="color:#000000;clip-rule:nonzero;display:inline;overflow:visible;visibility:visible;opacity:1;isolation:auto;mix-blend-mode:normal;color-interpolation:sRGB;color-interpolation-filters:linearRGB;solid-color:#000000;solid-opacity:1;fill:#000000;fill-opacity:1;fill-rule:nonzero;stroke:#378b00;stroke-width:0;stroke-linecap:butt;stroke-linejoin:miter;stroke-miterlimit:4;stroke-dasharray:none;stroke-dashoffset:0;stroke-opacity:1;marker:none;color-rendering:auto;image-rendering:auto;shape-rendering:auto;text-rendering:auto;enable-background:accumulate"
       id="path4162"
       d="m 302.40716,812.72997 c 1.93272,1.05438 -7.77745,-0.35859 -6.84724,-4.90844 0.52573,-2.5713 2.37622,-2.76208 3.53025,-4.25629 0.20513,-0.2656 0.69498,-1.38181 0.53554,-1.0081 -4.91568,11.52408 -2.05847,8.75319 -9.24568,8.93997 -3.14486,1.10788 -6.25707,-0.77807 -9.38696,-0.63272 -0.11694,0.005 -0.23891,0.79601 -0.14681,0.64921 0.50507,-0.80468 0.97359,-3.6185 1.41088,-2.66332 0.58885,1.28619 0.31736,3.8859 -0.22382,5.25621 -1.31235,3.32329 -3.30412,5.24063 -4.9562,7.86092 -2.93032,3.4353 -3.98293,4.86763 -6.79181,7.57364 -0.33102,0.3189 0.5942,-0.98622 0.95587,-1.10296 0.12682,-0.0409 0.059,0.51292 0.062,0.77439 0.0136,1.17158 0.10069,2.36646 -0.0123,3.51557 -0.19686,2.00434 -0.60497,3.89799 -0.90749,5.84696 1.28528,9.05939 -3.70361,5.99657 -4.81966,10.10625 -0.25109,0.92457 0.95506,-0.84699 1.45706,-1.11292 0.0972,-0.0514 -0.18674,0.24844 -0.20488,0.44957 -0.0962,1.06838 -0.0965,2.16384 -0.12808,3.24812 -0.0422,1.44872 -0.062,2.89977 -0.0929,4.34965 0.44107,1.3774 1.20377,2.50579 1.32332,4.13221 0.0643,0.87427 -0.66224,1.19304 -0.87533,1.96314 -0.0508,0.18351 0.20756,0.1477 0.30708,0.0904 0.49491,-0.28479 0.93321,-1.19319 1.44542,-1.09894 4.07439,0.74969 -1.49999,3.42455 2.92017,0.61947 1.9735,1.7333 -0.019,0.44596 2.3331,0.35268 0.58195,-0.0229 1.16773,0.687 1.73427,0.41512 0.89117,-0.42762 1.56281,-2.23355 2.47305,-2.43407 5.96528,-1.31394 -0.26116,6.35274 5.73054,-3.3931 1.02003,-0.77297 2.04001,-1.54598 3.06004,-2.31895 1.03542,-1.11947 2.02435,-2.43914 3.1062,-3.35839 1.12575,-0.95655 2.35948,-1.30904 3.48923,-2.24571 1.14627,-0.95034 2.1841,-2.38284 3.31706,-3.39727 1.68676,-1.51037 3.45552,-2.60819 5.17964,-3.93205 0.22543,-3.85057 -0.25233,0.48729 2.29447,-3.77362 0.57,-0.9536 0.85879,-2.44324 1.28816,-3.66485 0.0109,-0.12247 0.86114,0.19647 0.85005,0.31893 l 0,0 c -0.14175,1.37291 -0.4233,2.71581 -0.42526,4.11876 -0.0149,10.55618 1.94264,-0.36253 -1.71921,12.99998 -0.65983,1.22054 -5.15036,9.67202 -5.76667,10.1616 -1.16241,0.92337 -2.54745,-0.58405 -3.74224,0.14775 -1.1964,0.73276 -2.03691,2.99722 -3.16663,4.08373 -11.22695,10.79747 5.09298,-7.68709 -6.51783,5.9092 -1.86688,1.32054 -5.16377,3.85851 -7.1656,4.4852 -0.88072,0.27573 -1.78294,-0.0464 -2.67317,0.032 -0.60648,0.0534 -1.20819,0.48296 -1.81239,0.36334 -0.45009,-0.0891 -0.81915,-0.89297 -1.2696,-0.97362 -0.60846,-0.10892 -1.21388,0.28029 -1.82082,0.42043 -3.27346,-2.96487 -1.42991,-2.09703 -5.60734,-1.79752 -1.49769,-1.1963 -3.44837,-7.39519 -3.91016,-10.40001 -1.91776,-12.47822 1.09597,0.8072 -0.33817,-5.2565 0.78422,-3.44523 1.02449,-3.04601 0.17679,-7.48734 -0.48073,-2.5186 -2.15906,-4.61748 -1.80712,-7.22292 0.45449,-3.36443 2.5351,-4.6981 3.74983,-7.1586 0.47458,-0.96131 0.64343,-3.05798 1.31249,-3.09532 0.55914,-0.031 -0.49619,2.04242 -0.74428,3.06364 0.39486,-0.19771 1.05743,0.19363 1.18464,-0.59308 2.70821,-16.75174 -5.25588,10.67179 0.048,-13.40087 3.14925,-14.2932 2.46171,-7.10925 7.38195,-10.62589 1.10008,-0.78629 1.99325,-2.46445 2.98988,-3.69666 0.18044,0.98535 0.0398,2.70582 0.5413,2.95608 0.41683,0.20801 0.25381,-1.67532 0.43254,-2.47011 0.8519,-3.78865 1.16201,-8.42433 2.65682,-11.26929 0.84178,-1.60205 2.32541,0.13724 3.45164,-0.35646 7.72834,-3.38771 2.0779,-5.83836 9.80641,1.26059 3.78718,1.73252 4.36575,-0.41606 2.81027,8.74336 -0.2593,1.52703 -0.28923,-3.52863 0.17844,-4.83372 0.92272,-2.57485 2.21691,-4.81064 3.68112,-5.93635 2.54166,-1.95402 5.22201,5.18927 6.41531,7.3377 0.32388,0.3594 -2.17141,9.68954 -2.49529,9.33014 z"
       inkscape:connector-curvature="0" />
    <path
       style="color:#000000;clip-rule:nonzero;display:inline;overflow:visible;visibility:visible;opacity:1;isolation:auto;mix-blend-mode:normal;color-interpolation:sRGB;color-interpolation-filters:linearRGB;solid-color:#000000;solid-opacity:1;fill:#000000;fill-opacity:1;fill-rule:nonzero;stroke:#378b00;stroke-width:0;stroke-linecap:butt;stroke-linejoin:miter;stroke-miterlimit:4;stroke-dasharray:none;stroke-dashoffset:0;stroke-opacity:1;marker:none;color-rendering:auto;image-rendering:auto;shape-rendering:auto;text-rendering:auto;enable-background:accumulate"
       id="path4164"
       d="m 305.47974,813.73222 c -4.76034,-1.63194 0.15563,15.7364 -2.72174,17.56511 -0.90038,0.5722 -1.01674,-3.27064 -1.67772,-4.64116 -0.54588,-1.13188 -1.98094,-4.35253 -1.89878,-2.77468 0.15976,3.06842 1.69245,5.20197 2.17736,8.12524 0.49107,2.96017 0.47135,6.17504 0.70704,9.26255 -4.78819,1.11936 -1.34743,10.76739 -3.17501,14.55064 -0.77811,1.61078 -4.56366,-10.52702 -1.10423,-4.02561 1.28386,2.41287 2.3641,5.23975 3.54614,7.85963 -1.43043,-5.46548 -0.4517,8.56647 -1.63585,7.3652 -1.59566,-1.61879 -0.85497,-9.10407 0.93964,-9.25794 0.98655,-0.0847 1.68353,2.10279 2.52528,3.15416 1.556,-14.21304 2.88752,5.85931 3.36127,3.48688 0.17408,-0.87162 -0.35429,-1.7685 -0.39498,-2.70583 -0.12392,-2.85504 0.71265,-1.49251 1.74749,-1.76035 0.70583,-0.18263 1.39255,-0.59679 2.08882,-0.89521 0.62833,0.99133 1.14637,2.37619 1.88495,2.97398 0.28587,0.23135 0.56661,-0.48991 0.84262,-0.76647 0.35763,-0.3583 0.74721,-0.62714 1.05729,-1.13715 0.80494,-1.32397 1.32109,-3.45701 2.26378,-4.32529 1.14775,-1.05716 2.48859,-0.7987 3.73286,-1.19805 0.12491,-0.12385 0.98463,3.47511 0.85972,3.59893 l 0,0 c -2.54956,8.0075 -3.9572,15.03242 -9.119,16.39069 -0.69838,0.18377 -1.3922,-0.4339 -2.08698,-0.66723 -0.0648,-0.0217 0.1309,0.0217 0.19637,0.0323 -0.90241,-0.79643 0.71085,0.47424 -1.75715,1.71389 -1.77835,0.89323 -4.05418,-0.0574 -5.72126,-1.14243 -0.4008,-0.26086 -1.06912,-0.44676 -1.08825,-1.303 -0.0188,-0.84265 0.68493,-0.94859 1.02736,-1.42289 -0.0451,0.53678 0.0532,1.22442 -0.13543,1.61029 -1.58895,3.25002 -3.60448,3.66944 -5.81136,1.6769 -1.41114,-1.27406 -2.75686,-3.37019 -3.54085,-6.07853 -0.45998,-1.58905 0.0258,-3.70487 0.18293,-5.52155 0.12528,-1.44743 0.43894,-2.80022 0.6584,-4.20031 1.01967,1.39148 1.911,3.29029 3.05904,4.17445 0.26196,0.20177 0.45352,-1.38046 0.20879,-1.6578 -2.43953,-2.76439 -5.06539,-0.25262 -5.64592,-8.11167 -0.27055,-3.66249 2.6742,-14.87225 3.1793,-17.04569 0.65992,-1.65809 4.86608,-15.8894 6.57371,-0.65503 0.29958,2.67269 -2.92385,0.44269 -3.99274,-1.22323 -0.85772,-1.33676 -0.62821,-4.21306 -0.87074,-6.35674 -1.45409,-12.85172 -1.55228,-7.21581 3.51314,-19.02188 0.1512,-0.87064 6.19586,3.48422 6.04469,4.35486 z"
       inkscape:connector-curvature="0" />
    <path
       style="color:#000000;clip-rule:nonzero;display:inline;overflow:visible;visibility:visible;opacity:1;isolation:auto;mix-blend-mode:normal;color-interpolation:sRGB;color-interpolation-filters:linearRGB;solid-color:#000000;solid-opacity:1;fill:#000000;fill-opacity:1;fill-rule:nonzero;stroke:#378b00;stroke-width:0;stroke-linecap:butt;stroke-linejoin:miter;stroke-miterlimit:4;stroke-dasharray:none;stroke-dashoffset:0;stroke-opacity:1;marker:none;color-rendering:auto;image-rendering:auto;shape-rendering:auto;text-rendering:auto;enable-background:accumulate"
       id="path4166"
       d="m 334.44002,724.94158 c -3.93009,6.81422 -0.83148,16.75198 -2.32005,24.49504 -0.4784,2.48849 -1.91156,3.66541 -2.91374,5.39024 -0.54066,0.93049 -1.29036,1.40421 -1.70926,2.56632 -1.10881,3.07584 -0.0136,10.92851 0.0977,12.68188 -0.18061,0.82268 -4.52416,20.50683 -4.80719,22.15813 -0.34585,2.01778 -0.22295,4.31336 -0.63286,6.28073 -0.18096,0.86838 -0.96214,0.91142 -1.05803,1.83437 -0.0723,0.69562 0.66686,0.87361 0.70316,1.58081 0.10736,2.0939 -0.19981,4.19083 -0.29972,6.28622 -1.19391,4.93921 0.32296,9.99635 0.005,14.93133 -0.0893,1.38993 -0.62384,2.50198 -0.98042,3.70089 -0.0795,0.2672 -0.29063,0.36613 -0.3204,0.67259 -0.019,0.198 0.16313,0.24676 0.21431,0.41955 0.37027,1.24915 0.69606,2.55071 1.04408,3.8261 -0.56076,7.39807 0.0636,4.15729 -1.90554,10.41161 -0.26376,0.83767 -0.50785,3.28389 -0.80529,2.49444 -0.32012,-0.84953 0.42541,-1.95876 0.6381,-2.93817 -1.29966,-0.86472 -2.63652,-1.52467 -3.89888,-2.59414 -1.10559,-0.93661 2.28452,1.46277 3.42677,2.19418 0.15802,1.82707 0.68387,3.67594 0.47398,5.48122 -0.35003,3.01054 -2.42108,3.75623 -3.52464,4.01705 -0.36845,0.0871 -0.73762,-0.16195 -1.10645,-0.24295 -0.0379,-0.0272 0.15018,-1.11941 0.18809,-1.09233 l 0,0 c -0.73722,-0.15374 -2.28532,-2.40514 -0.59369,-3.36179 0.24512,-0.13861 0.40834,0.61823 0.61254,0.92733 0.87963,0.39108 3.53651,1.31422 2.63885,1.17323 -1.63304,-0.25646 -4.77903,0.24231 -5.16325,-4.78621 -0.0697,-0.91272 0.48678,-1.56397 0.68234,-2.39741 1.06948,-4.55839 0.83885,-3.65388 1.22009,-8.33565 0.37489,-0.75377 1.14988,-1.18957 1.12465,-2.26135 -0.0223,-0.94285 -1.08234,-0.4848 -1.21075,-1.39178 -0.11412,-0.8061 0.76841,-1.20337 0.7252,-2.03768 -0.0751,-1.45183 -0.98832,-2.38725 -1.02972,-3.84469 -0.0676,-2.38181 1.6471,-11.66409 1.95062,-13.44344 -0.0158,-1.62099 -0.10335,-3.24577 -0.0469,-4.863 0.0502,-1.44009 0.57394,-2.88675 0.36557,-4.26669 -0.25103,-1.66281 -1.52867,-2.31342 -1.6202,-4.04307 -0.11359,-2.14652 0.90321,-3.96146 1.08417,-6.08871 1.64507,-19.33636 -1.98886,-2.28291 3.61312,-22.43435 0.87209,-3.12504 1.87502,-6.11294 2.61629,-9.3751 2.38002,-10.47421 0.29922,-2.46331 0.83906,-7.15281 0.16603,-1.4423 0.57941,-2.78433 0.61512,-4.26395 0.0833,-3.44479 -0.7973,-7.06058 -0.26254,-10.33297 0.77468,-4.74073 2.67056,-8.38255 4.00583,-12.57383 0.0207,-1.05492 7.34492,-0.45612 7.32414,0.59881 z"
       inkscape:connector-curvature="0" />
    <path
       style="color:#000000;clip-rule:nonzero;display:inline;overflow:visible;visibility:visible;opacity:1;isolation:auto;mix-blend-mode:normal;color-interpolation:sRGB;color-interpolation-filters:linearRGB;solid-color:#000000;solid-opacity:1;fill:#000000;fill-opacity:1;fill-rule:nonzero;stroke:#378b00;stroke-width:0;stroke-linecap:butt;stroke-linejoin:miter;stroke-miterlimit:4;stroke-dasharray:none;stroke-dashoffset:0;stroke-opacity:1;marker:none;color-rendering:auto;image-rendering:auto;shape-rendering:auto;text-rendering:auto;enable-background:accumulate"
       id="path4168"
       d="m 363.22089,731.42335 c -3.02236,29.92718 0.78558,-0.1573 -4.4937,24.82269 -0.36335,1.7193 0.18257,4.07018 -0.37085,5.56451 -0.51583,1.39284 -1.7952,0.65383 -2.39406,1.90126 -0.87536,1.82358 -2.17841,14.09169 -2.23827,14.57081 -0.48865,12.28291 0.33067,10.64644 -2.71557,20.59235 -0.49506,1.61646 -1.35093,2.71687 -1.79429,4.39445 -0.0889,0.33636 0.51453,0.0181 0.52739,0.39909 0.0463,1.37145 -0.3059,2.68491 -0.37714,4.05193 -0.11587,2.22321 -0.12201,4.46448 -0.18303,6.69671 -0.53493,1.96718 -1.1443,3.85765 -1.60473,5.90148 -0.72459,3.21645 -1.05374,6.80723 -1.7675,10.03466 -0.76854,3.47514 -0.92659,3.78076 -1.9301,7.22829 0.0652,2.48998 -0.92449,4.10697 -1.26272,6.25281 -0.0469,0.29775 0.20621,1.17128 0.12944,0.9004 -0.15303,-0.54014 -0.0626,-1.58644 -0.36163,-1.71985 -0.27058,-0.12069 -0.36483,0.85435 -0.5146,1.32901 -0.72288,2.29115 -1.40053,4.64024 -2.10078,6.96038 -0.0317,0.37333 -0.2649,1.27232 -0.0946,1.12003 0.52972,-0.47373 1.17202,-1.11195 1.3438,-2.23721 0.12441,-0.81485 -0.42888,-1.46844 -0.67197,-2.16345 -0.0367,-0.10505 -0.16502,-0.34052 -0.15888,-0.21216 0.0461,0.9649 0.18988,1.89989 0.2848,2.84981 0.071,0.0702 -0.41654,2.11527 -0.48752,2.04507 l 0,0 c -1.32148,1.01463 -3.0696,3.41269 -4.31193,-0.52504 -0.44848,-1.42145 -0.1182,-3.43607 0.10282,-5.06468 0.86482,-6.37329 0.64582,-5.54335 2.67352,-6.67733 -0.5529,2.37919 -1.11413,4.75046 -1.65876,7.13753 -0.0482,0.21141 -0.0577,0.85203 -0.11939,0.65574 -0.33362,-1.0601 -0.60795,-2.22579 -0.75898,-3.44688 -0.20064,-1.62235 -0.21018,-6.75584 0.27498,-8.08229 0.53716,-1.46847 1.51698,-1.9662 2.27547,-2.94932 -1.78867,-4.6053 0.22292,1.59097 1.19779,-2.21238 0.29758,-1.16101 -0.78538,-2.22825 -0.84475,-3.53241 -0.29383,-6.45169 2.56768,-11.11376 2.81807,-17.36149 0.80728,-0.63195 2.36111,-1.36204 2.2798,-2.61694 -0.31457,-4.8545 -2.19995,-6.37122 -1.89012,-12.07419 0.37381,-6.88055 3.86437,-16.07262 5.56017,-21.30194 0.64671,-2.65395 1.29979,-5.30139 1.94003,-7.9618 0.28432,-1.18143 1.31643,-5.55585 1.3472,-6.55205 0.0791,-2.56045 -0.55038,-5.12583 -0.35936,-7.66164 1.04219,-13.83306 2.49612,-13.88413 7.11536,-24.70546 0.12669,-0.80581 5.72132,2.84367 5.59463,3.6495 z"
       inkscape:connector-curvature="0" />
    <path
       style="color:#000000;clip-rule:nonzero;display:inline;overflow:visible;visibility:visible;opacity:1;isolation:auto;mix-blend-mode:normal;color-interpolation:sRGB;color-interpolation-filters:linearRGB;solid-color:#000000;solid-opacity:1;fill:#000000;fill-opacity:1;fill-rule:nonzero;stroke:#378b00;stroke-width:0;stroke-linecap:butt;stroke-linejoin:miter;stroke-miterlimit:4;stroke-dasharray:none;stroke-dashoffset:0;stroke-opacity:1;marker:none;color-rendering:auto;image-rendering:auto;shape-rendering:auto;text-rendering:auto;enable-background:accumulate"
       id="path4194"
       d="m 79.169363,884.73641 c 2.358723,-1.28641 4.717412,-2.57281 7.076132,-3.85922 1.99776,0.59032 4.32439,2.48127 5.99334,1.77094 1.3979,-0.59493 0.79023,-12.08025 0.92781,-12.66578 0.98309,-4.18363 2.89383,-7.1277 4.34941,-10.67871 2.09617,-5.11385 4.203885,-10.21055 6.305845,-15.31583 10.88319,-12.04196 7.87301,-5.80369 14.28416,-23.05527 0.96645,-2.60055 1.61063,-7.10003 0.97976,-10.86657 -4.07225,-24.31358 -3.26151,10.44202 -2.76792,-18.94149 -3.14819,-5.62322 1.55482,-11.13942 -0.89704,-16.65219 -1.25586,-2.82358 -3.51072,-3.15622 -5.21911,-5.05289 -1.66227,-1.84538 -3.14823,-4.62341 -4.85325,-6.12923 -12.019705,-10.61553 -0.0429,4.69221 -10.211435,-9.43944 -5.59015,-3.13077 -4.28902,-2.64954 -10.29366,-4.83875 -2.420372,-0.88248 -4.778629,-1.23964 -7.235143,-2.45499 -7.753789,-3.83617 -9.745557,-8.1377 -17.052314,-7.519 -2.474532,0.20951 -4.364965,2.24983 -6.547469,3.3748 -2.020877,2.7658 -6.699794,9.87605 -9.571901,11.07488 -2.139034,0.89286 -4.953139,-0.47142 -7.144596,0.26774 -2.157482,0.72792 -3.668484,3.18059 -5.764999,4.08659 -11.009626,4.7579 -0.870809,-3.5242 -8.918616,3.95409 -1.315379,7.0504 -3.49167,13.1386 -4.710582,20.29712 -0.541892,3.18236 -0.627668,6.84231 -1.234895,9.95231 -1.695715,8.68423 -4.013301,4.1344 -0.463544,9.49011 2.105949,5.65967 1.588631,11.10768 3.202353,16.66885 3.805757,13.11522 11.412454,24.28782 18.461317,32.46394 2.710016,3.14339 5.523293,5.70211 8.284932,8.55315 6.319279,9.19604 9.69669,15.08495 16.887769,21.45067 6.217503,5.50394 15.168927,9.97842 20.95859,10.97355 4.321248,0.74274 8.301908,-0.0654 12.452848,-0.0981 0.83123,0.15945 4.784435,21.28806 3.953205,21.12863 l 0,0 c -10.314645,0.6991 -15.789105,2.37207 -26.932867,-1.56692 -6.879981,-2.43185 -16.953348,-8.89707 -23.992435,-15.48719 -3.617136,-3.38643 -7.077064,-7.89231 -10.615604,-11.83848 -2.981885,-4.82139 -5.916701,-9.73988 -8.945682,-14.46417 -2.867735,-4.47281 -5.9643,-8.45644 -8.737215,-13.11578 -4.349538,-7.30865 -11.548449,-21.63962 -14.507073,-30.35939 -3.354024,-9.8855 -5.116688,-21.77947 -6.87404599,-31.56655 0.484887,-5.74331 1.111169,-11.36215 1.45463699,-17.22988 0.224274,-3.83138 -0.89922799,-9.07049 0.246909,-11.8384 0.951183,-2.2971 4.283343,0.45026 5.347421,-1.672 1.094552,-2.18306 0.01545,-6.87589 0.459071,-9.90881 1.230029,-8.40946 2.839314,-9.23146 6.23399,-14.58265 4.638967,-9.51556 2.072542,-8.88746 10.487424,-8.84496 2.097747,0.0106 4.747921,1.94867 6.459401,0.7675 1.919303,-1.32458 2.014183,-6.16622 3.78337,-7.83638 3.795949,-3.58347 10.562093,0.53414 13.574675,-5.28192 7.031819,-3.52133 9.540008,-6.40144 18.351568,-4.20989 3.177211,0.79025 6.558066,3.1126 9.855507,4.91254 6.69323,3.65358 13.459324,8.4937 20.155184,12.16785 2.38928,1.83576 4.778115,3.69382 7.167845,5.50729 3.03664,2.30436 6.33347,2.94385 9.11114,6.84598 2.95037,4.14465 4.44323,10.47868 6.83756,15.55898 2.16608,4.596 4.93967,8.60776 6.82333,13.42695 3.85038,9.85077 2.85221,10.99249 2.24599,18.09075 5.91629,12.30648 2.13724,2.76833 5.69378,20.79241 4.34825,22.03665 8.33907,26.68657 1.7649,46.28137 -3.57987,10.66999 -16.06522,5.74327 -18.31474,19.17941 -1.60958,4.21014 -2.82916,9.02754 -4.82879,12.63039 -1.32554,2.38826 -3.43391,3.29227 -5.04411,5.15804 -5.89118,6.82588 -3.52781,6.00748 -10.162235,11.59103 -2.29375,1.93043 -4.15302,5.36847 -7.14703,5.17098 -2.90455,-0.19164 -6.290816,-4.17671 -9.436233,-6.26504 -0.849484,-0.41547 -2.59615,-20.36835 -1.746639,-19.95293 z"
       inkscape:connector-curvature="0" />
    <path
       style="color:#000000;clip-rule:nonzero;display:inline;overflow:visible;visibility:visible;opacity:1;isolation:auto;mix-blend-mode:normal;color-interpolation:sRGB;color-interpolation-filters:linearRGB;solid-color:#000000;solid-opacity:1;fill:#000000;fill-opacity:1;fill-rule:nonzero;stroke:#378b00;stroke-width:0;stroke-linecap:butt;stroke-linejoin:miter;stroke-miterlimit:4;stroke-dasharray:none;stroke-dashoffset:0;stroke-opacity:1;marker:none;color-rendering:auto;image-rendering:auto;shape-rendering:auto;text-rendering:auto;enable-background:accumulate"
       id="path4210"
       d="m 254.62082,785.85428 c -1.02933,-4.52063 -4.21494,7.01368 -5.72983,4.25266 -2.37953,-4.33683 -4.39816,-9.72793 -5.72464,-15.64406 -0.33245,-1.48268 0.5686,-3.42847 1.29328,-4.11982 0.48058,-0.4585 -0.58476,2.25721 -0.30924,3.18102 1.56127,5.23513 3.71285,9.63763 5.56929,14.45642 -0.59805,1.39493 -1.04795,3.12676 -1.79418,4.18476 -2.98546,4.23275 -7.44267,-10.8385 -8.19095,-15.9973 -0.43338,-2.98768 1.90017,-5.05637 3.20021,-6.69742 0.74586,-0.94149 -1.75682,2.81109 -1.4451,4.48184 1.13056,6.06008 3.53297,10.78527 5.29946,16.1779 -0.37954,0.64695 -1.93246,4.26831 -2.71377,1.28278 -1.42135,-5.43102 -1.35836,-12.31031 -3.08432,-17.3619 -0.45048,-1.31851 -2.46571,0.65564 -2.12771,2.10701 4.54439,19.51467 8.58125,9.69562 5.09228,16.98768 -0.95845,2.42906 -0.27094,1.25522 -0.52482,-0.20352 -1.05754,-6.07647 -2.47023,-11.89504 -3.40593,-18.05383 -0.0803,-0.52878 0.37702,-1.91137 0.45332,-1.38013 0.92342,6.42745 1.59184,13.0067 2.16445,19.60141 0.0918,1.057 -0.12323,2.13207 -0.18487,3.19813 2.58061,-6.49706 1.60545,-3.3553 -2.55572,-21.42464 -0.21028,-0.91314 -1.48751,-0.21425 -1.43414,0.78852 0.35542,6.67872 1.82702,12.92163 2.51351,19.49233 -0.51751,0.56896 -0.47747,0.1561 -0.33445,1.06305 0.10102,-6.04673 0.20213,-12.09343 0.3032,-18.14016 -0.12389,-0.12091 -0.33158,-0.6304 -0.37166,-0.36275 -0.99818,6.66795 -1.61459,13.55577 -2.60243,20.2301 -0.0559,0.3777 -0.24992,-0.69334 -0.23099,-1.08593 0.012,-0.24722 0.17789,0.71622 0.25786,0.52866 1.71571,-4.02329 3.24404,-8.36283 4.86609,-12.54426 1.50788,9.01535 2.47018,8.25049 -4.8457,13.3427 -0.71857,0.50015 -1.3773,-1.408 -2.1259,-1.66769 -0.14802,-0.0513 -0.23086,1.01353 -0.0918,0.8983 7.10728,-5.88841 9.02281,-11.06463 5.86334,-3.81678 -5.74689,5.26031 -3.36954,6.09837 -8.44885,0.27967 -0.25747,-0.29496 0.54226,0.48505 0.825,0.65939 1.24168,0.76573 2.44936,2.29661 3.74491,2.15877 1.63592,-0.17405 2.89657,-4.86271 2.06714,-1.97765 -5.48904,8.19845 -1.15797,4.69523 -6.55761,2.75682 -0.66925,-0.24024 -2.64833,-0.0649 -2.02477,0.48545 5.63226,4.97107 3.33635,0.61141 7.48003,-4.54367 0.29693,-0.36939 -0.009,1.41723 -0.013,2.12586 -1.93643,3.93124 -2.41953,7.64012 -5.19288,6.40283 -0.28756,-0.12831 -0.41658,-0.88913 -0.52482,-1.44672 -0.0431,-0.2222 0.25795,0.55394 0.30991,0.33969 0.1754,-0.72362 -0.11014,-1.85777 0.18733,-2.39086 0.48895,-0.8762 1.23499,-0.84304 1.85247,-1.26456 0.2453,0.39919 0.73441,0.55804 0.73586,1.19756 0,0.56463 -0.50274,0.48697 -0.73127,0.80649 -0.95035,1.32861 -1.90282,2.65911 -2.80071,4.13136 -0.19586,0.32114 -0.2273,1.02656 -0.46082,1.21644 -0.037,0.0301 -0.83736,-0.42649 -1.00109,-0.51829 -1.62917,-5.79602 1.78059,-2.35847 1.42297,-1.54177 -0.3716,0.84864 -1.0889,0.79405 -1.47523,1.61491 -0.70743,1.50325 -0.95746,3.7847 -1.71934,5.17318 -0.34279,0.62469 -1.02177,-0.1859 -1.36256,0.44337 -0.36186,0.66819 -0.28302,1.90441 -0.42453,2.85659 0.0721,-0.67468 0.28733,-2.69932 0.21649,-2.02405 -0.0794,0.75658 0.0943,1.90915 -0.24208,2.26807 -0.70497,0.7519 -1.58796,0.26283 -2.37347,0.52175 -2.51833,0.83001 -1.82729,0.26198 -3.4158,2.86593 -0.0586,0.0621 -0.49032,-1.62742 -0.43167,-1.68961 l 0,0 c 2.06546,-10.12382 0.01,2.55423 -0.14958,-5.6107 -0.0149,-0.76977 0.54046,-1.09962 0.73568,-1.75938 2.02919,-6.85661 -2.68061,4.83394 2.45514,-6.81385 0.2806,-0.67262 0.53804,-1.38847 0.84188,-2.01791 0.21283,-0.44091 0.4785,-1.59878 0.70229,-1.18099 0.2317,0.43268 -0.0922,1.7412 -0.40653,1.73322 -0.53535,-0.0136 -1.1952,-0.73277 -1.34836,-1.77774 -0.46219,-3.15324 6.45276,-3.17789 3.30315,-7.22426 0.84825,-1.90033 0.30139,-1.26268 1.34424,-1.71443 0.17983,-0.0779 0.64995,-0.56288 0.53535,-0.27009 -0.47899,1.22376 -1.3484,1.79794 -1.68431,3.20554 -0.10775,0.45162 2.12891,1.06473 0.4785,-1.14853 0.70957,-1.57871 1.24899,-3.56543 2.12867,-4.7361 2.17474,-2.89409 0.91916,1.73007 2.79339,-0.10197 0.3081,-0.30122 0.7186,-1.22727 0.52235,-1.79727 -0.71725,-2.08307 -3.42516,11.86863 -3.22802,3.87665 -1.27848,2.74706 2.68062,-5.77139 3.77065,-6.41747 1.38155,-0.81883 2.80226,1.36902 4.22631,1.78805 0.37066,0.10905 -0.66925,-0.90293 -1.04287,-0.85131 -0.6691,0.0924 -5.6021,3.08888 -5.93215,3.2835 0.17059,-0.17921 0.37685,-0.25952 0.51176,-0.53764 0.98438,-2.02971 1.46311,-5.65921 2.8234,-6.33926 1.78692,-0.89336 3.64197,1.19139 5.41092,2.2226 0.44457,0.25917 1.60257,1.71953 1.14398,1.59856 -1.4997,-0.3956 -2.8662,-2.67996 -4.37419,-2.45065 -1.66689,0.25348 -3.10006,2.54864 -4.65008,3.82294 1.18958,6.89784 0.23991,4.45217 6.61295,-2.58941 0.43919,-0.48526 1.0889,-1.36523 0.95842,-2.34771 -0.17045,-1.28356 -0.99753,-2.9411 -1.58237,-2.35036 -2.02799,2.04855 -3.96986,5.12732 -5.11005,9.11066 -0.45009,1.57234 0.7126,3.33823 1.0689,5.0073 1.60949,-4.59797 2.99075,-9.56578 4.82848,-13.79392 0.23678,-0.54478 0.70836,0.24877 1.0655,0.23336 0.2583,-0.0109 0.79204,-0.83448 0.75985,-0.31225 -0.4456,7.22901 -1.056,14.45839 -2.06277,21.44958 -0.10792,0.74954 -0.51817,-1.15179 -0.77727,-1.72771 -0.25992,-6.56188 -0.51985,-13.12376 -0.7798,-19.68567 0.40194,-0.40009 0.78206,-0.90829 1.20584,-1.2003 4.25344,-2.93107 3.70629,6.27192 4.91471,18.47601 0.11044,1.11544 -1.29365,1.93082 -1.60457,0.98541 -5.21235,-15.85026 -5.95355,-13.61137 -2.71073,-18.75665 2.34691,-8.15779 0.65491,-3.78642 4.34116,15.94143 0.10016,0.536 0.27016,2.2065 0.14168,1.69616 -1.51248,-6.00768 -3.04734,-12.01074 -4.31012,-18.25316 -0.10791,-0.53355 0.0846,-1.2275 0.28833,-1.62849 0.23474,-0.46218 0.60733,-0.48846 0.911,-0.73267 3.57569,-0.65688 3.60175,-1.10603 7.14588,13.1461 0.4776,1.92056 -0.82135,6.94118 -1.62583,5.54492 -2.28346,-3.96324 -3.18526,-10.40564 -4.39601,-15.99661 -0.40461,-1.86844 1.42064,-4.78009 1.70243,-5.36481 2.32093,4.63179 5.55088,7.93443 6.96273,13.89535 0.51809,2.18734 -1.33859,4.2672 -2.38579,5.42831 -0.57498,0.63751 1.14524,-2.53846 0.79185,-3.66101 -8.74553,-27.77924 -8.84521,-9.0486 -5.24389,-15.6723 0.75674,-1.39191 1.38925,-3.04073 2.08391,-4.56111 2.68794,3.37744 5.67458,5.92514 8.06376,10.1323 0.65843,1.15943 0.95633,3.52692 0.6233,5.16484 -0.23287,1.14517 -1.29381,1.3101 -1.79985,0.62171 -8.67087,-11.79511 -8.88525,-8.69365 -5.87853,-13.21972 0.90523,-1.36268 1.80269,-2.74669 2.70407,-4.12005 0.75319,-0.79094 6.24446,20.90602 5.49127,21.69696 z"
       inkscape:connector-curvature="0" />
    <path
       style="color:#000000;clip-rule:nonzero;display:inline;overflow:visible;visibility:visible;opacity:1;isolation:auto;mix-blend-mode:normal;color-interpolation:sRGB;color-interpolation-filters:linearRGB;solid-color:#000000;solid-opacity:1;fill:#000000;fill-opacity:1;fill-rule:nonzero;stroke:#378b00;stroke-width:0;stroke-linecap:butt;stroke-linejoin:miter;stroke-miterlimit:4;stroke-dasharray:none;stroke-dashoffset:0;stroke-opacity:1;marker:none;color-rendering:auto;image-rendering:auto;shape-rendering:auto;text-rendering:auto;enable-background:accumulate"
       id="path4218"
       d="m 250.00384,721.29001 c 2.54413,-2.26722 4.90693,-5.7171 7.63233,-6.80169 5.51826,-2.19603 11.96111,6.89792 10.37221,21.48152 -0.59889,5.4968 -5.24473,3.79236 -7.61374,6.69349 -0.68034,0.83315 -0.82466,2.76344 -1.23699,4.14519 -0.0275,0.2502 -1.76466,-0.54054 -1.73721,-0.79073 l 0,0 c 0.0562,-1.97096 0.16183,-3.93865 0.16835,-5.91286 0.008,-2.4631 -1.33278,-7.29549 -0.12433,-7.38511 2.18061,-0.1617 4.40353,3.23399 5.57746,6.98068 1.85412,5.91748 -13.21848,12.57235 -8.56925,11.7828 -1.04815,0.64365 -5.51694,-29.54962 -4.46883,-30.19329 z"
       inkscape:connector-curvature="0" />
    <path
       style="color:#000000;clip-rule:nonzero;display:inline;overflow:visible;visibility:visible;opacity:1;isolation:auto;mix-blend-mode:normal;color-interpolation:sRGB;color-interpolation-filters:linearRGB;solid-color:#000000;solid-opacity:1;fill:#000000;fill-opacity:1;fill-rule:nonzero;stroke:#378b00;stroke-width:0;stroke-linecap:butt;stroke-linejoin:miter;stroke-miterlimit:4;stroke-dasharray:none;stroke-dashoffset:0;stroke-opacity:1;marker:none;color-rendering:auto;image-rendering:auto;shape-rendering:auto;text-rendering:auto;enable-background:accumulate"
       id="path4224"
       d="m 269.50083,777.05749 c -1.09187,0.82904 -10.55982,8.12013 -12.13786,8.95432 -0.90613,0.47901 -1.92806,-0.24777 -2.79984,0.44718 -0.37129,0.29602 -0.26735,1.56395 -0.51706,2.19713 -0.79071,2.00492 -1.53236,4.21136 -2.57834,5.65167 -1.71973,2.36811 -3.72604,3.72998 -5.58907,5.59496 -3.3934,9.23599 -9.13697,2.35376 -13.13282,6.61042 -1.59888,1.70325 -1.81455,6.57413 -3.23522,8.84001 -0.60752,0.96897 -1.54393,-0.055 -2.31484,0.012 -0.19741,0.0171 -0.43215,-0.0249 -0.58105,0.23962 -1.72842,3.07149 -3.32514,6.43754 -4.98769,9.65631 -5.98096,6.48923 -3.00255,3.69105 -8.90694,8.51823 -0.25494,0.25262 -2.00883,-7.09173 -1.75389,-7.34435 l 0,0 c 3.11238,-15.15324 0.74492,-9.77067 6.20842,-17.61036 0.44761,-0.31981 1.05681,-0.18858 1.34281,-0.95943 0.88345,-2.381 5.04824,-18.88675 6.44065,-21.28577 1.53421,-2.64331 3.62459,-3.54867 5.48723,-5.08411 7.95718,-6.55929 5.15311,-5.02168 13.42273,-4.82842 1.1099,-1.83269 2.21981,-3.66536 3.32969,-5.49805 0.56897,-0.37294 1.19491,-0.49053 1.70686,-1.11884 0.98768,-1.21226 1.7845,-2.98341 2.73028,-4.32718 2.682,-3.81056 7.4241,-10.02099 10.53883,-10.89629 2.36655,-0.66508 4.74635,1.11783 7.11954,1.67675 0.71352,-0.0298 0.92112,20.52431 0.20758,20.55421 z"
       inkscape:connector-curvature="0" />
    <path
       style="color:#000000;clip-rule:nonzero;display:inline;overflow:visible;visibility:visible;opacity:1;isolation:auto;mix-blend-mode:normal;color-interpolation:sRGB;color-interpolation-filters:linearRGB;solid-color:#000000;solid-opacity:1;fill:#000000;fill-opacity:1;fill-rule:nonzero;stroke:#378b00;stroke-width:0;stroke-linecap:butt;stroke-linejoin:miter;stroke-miterlimit:4;stroke-dasharray:none;stroke-dashoffset:0;stroke-opacity:1;marker:none;color-rendering:auto;image-rendering:auto;shape-rendering:auto;text-rendering:auto;enable-background:accumulate"
       id="path4232"
       d="m 321.95237,711.36335 c -3.46308,9.19705 5.68174,-6.38179 5.14971,-2.91804 -0.55978,3.64431 -2.17913,6.27974 -2.9286,9.77982 -0.41936,1.95839 0.12847,4.64139 -0.51929,6.32185 -0.32465,0.84221 -1.04164,-1.60337 -0.9017,-2.63552 0.81608,-6.01857 2.39777,-11.49309 3.59665,-17.23964 -5.66466,3.36469 3.51351,-4.53136 3.06568,-2.48515 -0.96417,4.40564 -2.87844,7.95583 -3.471,12.62595 -0.25684,2.0241 0.64376,3.99264 1.12843,5.83546 0.11413,0.43395 -0.0194,-0.99007 0.0181,-1.47646 0.51716,-6.72759 1.09643,-13.43478 1.64465,-20.15219 0.49665,0.0261 1.0099,0.33892 1.48999,0.0784 0.44016,-0.23892 0.71007,-1.76555 1.14803,-1.51021 0.3462,0.20186 -0.54313,1.10528 -0.60047,1.82947 -0.42629,5.38762 -0.6262,10.84244 -0.83288,16.28332 -0.0229,0.60714 -0.14189,1.96691 0.14595,1.80252 1.63145,-0.93176 3.05185,-3.00024 4.57779,-4.50036 -0.20517,-2.71725 -0.88431,-5.45762 -0.61551,-8.15176 0.0932,-0.9332 1.0402,0.0266 1.35613,0.72853 0.76042,1.68945 1.48996,3.71789 1.66439,5.98223 0.25482,3.30811 -0.68809,10.98448 -1.58605,14.26474 -0.24078,0.87958 -0.7177,1.38559 -1.07655,2.07837 -0.54683,-0.0648 -1.35765,-1.14989 -1.64045,-0.19437 -0.26752,0.90393 1.13189,1.4907 0.96176,2.48766 -0.37078,2.17246 -1.49284,3.45244 -2.26268,5.135 -1.47963,3.2339 -5.76387,12.30445 -7.16832,13.99321 -1.06792,1.28408 -2.42999,1.01156 -3.64497,1.51734 -0.23168,0.23244 -1.84543,-6.44084 -1.61376,-6.67326 l 0,0 c 0.58965,-2.8788 1.43059,-5.59418 1.76905,-8.63635 0.11719,-1.05345 -0.7134,-2.1475 -0.46331,-3.1 0.32133,-1.2239 1.25894,-1.13231 1.79762,-1.9822 0.31012,-0.4892 0.41519,-1.37125 0.68972,-1.9419 2.53206,-5.26363 1.98785,-1.11065 1.76949,-8.63908 0.0616,-1.41766 0.0226,-2.8687 0.18478,-4.25298 0.0528,-0.44988 0.22466,-1.21902 0.43829,-1.06225 0.61654,0.45246 1.03261,1.64553 1.53257,2.50855 0.24725,0.4268 0.70018,2.01822 0.70759,1.35824 0.01,-0.80932 -0.63775,-1.1655 -0.70081,-1.96477 -0.30517,-3.86853 -0.253,-7.81937 -0.3795,-11.72905 1.57807,-1.79016 3.08558,-3.86701 4.73418,-5.37048 0.65682,-0.59901 1.96401,-2.30936 2.11565,-0.87637 0.63739,6.02281 0.31903,12.42634 -0.2531,18.47628 -0.11484,1.21406 -1.09158,1.0828 -1.64471,1.59193 -2.07823,1.91289 -1.17912,1.77484 -3.01995,1.01358 0.2656,-6.46918 0.0342,-13.10443 0.79685,-19.40755 0.12815,-1.05892 1.16078,-1.00281 1.59605,-0.36778 1.20504,1.75797 2.78181,3.88684 2.88103,6.89923 0.18481,5.61159 -0.74886,11.42678 -2.11655,16.31248 -0.63533,2.2695 -2.96608,-3.01156 -3.8205,-0.93159 0.39677,-5.04961 0.63742,-10.16047 1.19023,-15.14883 0.0676,-0.60969 0.40401,-1.75479 0.63829,-1.35113 1.44598,2.49134 3.75459,4.94907 3.68762,8.80442 -0.1839,10.58902 -3.09302,17.32215 -7.52898,18.283 -1.44258,0.31247 -2.8963,-0.34893 -4.34448,-0.52339 -0.72097,-0.0947 -0.063,-20.86362 0.65795,-20.76886 z"
       inkscape:connector-curvature="0" />
    <path
       style="color:#000000;clip-rule:nonzero;display:inline;overflow:visible;visibility:visible;opacity:1;isolation:auto;mix-blend-mode:normal;color-interpolation:sRGB;color-interpolation-filters:linearRGB;solid-color:#000000;solid-opacity:1;fill:#000000;fill-opacity:1;fill-rule:nonzero;stroke:#378b00;stroke-width:0;stroke-linecap:butt;stroke-linejoin:miter;stroke-miterlimit:4;stroke-dasharray:none;stroke-dashoffset:0;stroke-opacity:1;marker:none;color-rendering:auto;image-rendering:auto;shape-rendering:auto;text-rendering:auto;enable-background:accumulate"
       id="path4236"
       d="m 351.93205,716.67606 c -2.08766,16.25849 8.49779,-11.49984 7.886,-5.92986 -0.46004,4.18879 -2.87275,6.6885 -3.41517,10.83619 -0.19031,1.45509 1.25194,1.81571 1.58469,3.1604 0.10791,0.43616 -0.67901,1.03393 -0.66754,0.54604 0.12901,-5.50167 0.69272,-10.92513 1.03909,-16.3877 0.87225,-1.11526 1.677,-2.48782 2.61681,-3.3458 4.52664,-4.13262 1.04288,14.65703 0.82956,17.38694 -0.0433,0.55465 -0.38868,-1.53169 -0.59757,-1.1651 -0.37478,0.6577 -0.78754,3.53316 -0.39799,2.91218 1.11964,-1.7847 1.82919,-4.43426 2.7438,-6.65139 -0.0577,-0.0324 -0.18439,-0.21675 -0.17282,-0.0973 0.84698,8.73466 1.82555,7.93646 -0.45769,17.87352 -0.74643,3.24868 -2.08494,5.7821 -3.09941,8.71392 -3.08465,8.91486 -1.15933,4.99713 -4.23024,10.33023 -0.73519,0.0223 -1.52244,-0.48657 -2.20563,0.0671 -0.35125,0.28468 -0.30413,1.41049 -0.47061,2.10189 -0.43242,1.7959 -0.88386,3.57258 -1.32577,5.35885 0.0242,0.20665 -1.41056,0.90271 -1.43474,0.69604 l 0,0 c -0.32797,-1.10502 -0.55758,-2.35956 -0.98398,-3.31514 -3.32679,-7.45566 -2.66561,-0.96396 -2.32884,-11.3127 0.10637,-2.57372 -0.30639,-5.47446 0.31907,-7.72123 0.73994,-2.65806 2.36147,-3.78063 3.46134,-5.85862 0.92946,-1.75619 1.63876,-3.97844 2.61596,-5.62364 0.44004,-0.74087 1.05015,-0.91472 1.56526,-1.416 0.3057,-0.29748 0.88329,-0.28915 0.89557,-0.97876 0.0424,-2.37576 -0.50268,-4.64308 -0.75403,-6.96463 0.65923,-4.4229 0.72905,-9.40921 1.97774,-13.2687 0.55448,-1.71387 1.89377,-1.52209 2.89305,-1.78605 5.56719,-1.47048 5.21121,2.19778 4.37974,17.84094 -0.17336,3.26164 -5.14632,-1.93351 -4.81332,0.85927 -0.61405,-4.84641 -1.77493,-9.5359 -1.84212,-14.53925 -0.0181,-1.35066 0.96828,-2.6687 1.615,-2.36826 1.978,0.9189 4.71811,1.76016 5.42095,5.63686 2.91057,16.05425 -0.60843,17.77944 -5.25123,20.81906 -1.89063,1.23776 -3.82649,2.16798 -5.73975,3.25196 -0.68254,0.23839 -2.33769,-19.42285 -1.65518,-19.66126 z"
       inkscape:connector-curvature="0" />
    <path
       style="color:#000000;clip-rule:nonzero;display:inline;overflow:visible;visibility:visible;opacity:1;isolation:auto;mix-blend-mode:normal;color-interpolation:sRGB;color-interpolation-filters:linearRGB;solid-color:#000000;solid-opacity:1;fill:#000000;fill-opacity:1;fill-rule:nonzero;stroke:#378b00;stroke-width:0;stroke-linecap:butt;stroke-linejoin:miter;stroke-miterlimit:4;stroke-dasharray:none;stroke-dashoffset:0;stroke-opacity:1;marker:none;color-rendering:auto;image-rendering:auto;shape-rendering:auto;text-rendering:auto;enable-background:accumulate"
       id="path4244"
       d="m 69.010666,826.0571 c -3.427934,9.19552 9.22887,-9.79032 10.480428,-2.7713 0.995423,5.58255 -0.880112,9.51562 -1.00969,14.52996 -0.0451,1.74473 1.204307,7.52832 0.488764,5.63021 -8.474824,-22.48108 -5.346028,-18.26594 -0.632453,-34.23498 1.104299,-3.09453 1.985017,-6.52255 3.312956,-9.28352 3.324374,-6.91191 2.535168,8.84346 2.485149,10.29611 -0.03392,0.9852 -0.502163,2.52567 -1.102552,1.71124 -1.409451,-1.91195 -2.136115,-4.92056 -3.118919,-7.4376 -1.690439,-4.32935 -3.263309,-8.72447 -4.894966,-13.08672 1.366268,-24.96068 -0.0042,-17.96132 1.563551,-9.06599 0.534357,3.03186 1.69563,6.21991 1.957564,9.1543 0.07789,0.87257 -0.508821,1.51092 -1.039268,1.13266 -8.694713,-6.20042 0.929558,-5.37425 -8.38208,-4.14963 -1.091015,-2.55593 -2.100542,-5.18431 -3.273074,-7.66776 -0.818243,-1.73311 -1.137615,0.80884 -1.804438,2.08546 -0.820396,1.57062 -1.262991,3.99284 -2.56313,4.54227 -14.133629,5.97272 3.261147,-9.16863 -7.455911,1.20091 -0.474479,0.79456 -0.948964,1.58909 -1.42345,2.38362 -0.557297,-0.19698 -1.294332,-0.99023 -1.671854,-0.59096 -0.663996,0.70231 -0.605397,2.58803 -1.128305,3.5526 -2.086514,3.84887 -3.049766,1.27168 -3.278609,7.66081 -0.02965,0.82801 0.404315,1.8694 0.606468,2.80411 -0.08936,-2.89467 -0.178748,-5.78933 -0.26811,-8.68401 -0.08516,-4.7e-4 -0.277081,-0.15881 -0.255524,-0.002 0.30302,2.20998 0.798564,4.47491 1.174776,6.70679 0.301041,1.78559 1.051138,3.87303 0.856865,5.34452 -0.197622,1.49637 -1.881516,1.0043 -1.912225,2.64802 -0.01799,0.96562 1.216336,1.36746 1.824493,2.05118 3.787535,0.78375 2.518607,5.10126 5.401444,7.84713 1.19334,1.13665 2.211184,-0.11512 3.411931,0.55172 7.111803,3.94957 -3.019258,2.5562 5.402814,2.77123 4.017815,-1.61127 8.24993,-2.58546 12.277397,-4.16648 2.965456,-1.16412 5.839226,-2.58995 8.758843,-3.88491 0.523528,-0.20019 5.744204,15.06087 5.220684,15.26108 l 0,0 c -2.56565,3.05125 -5.295772,5.78631 -7.696994,9.15374 -9.705531,13.61088 -1.937259,11.89825 -15.248582,9.69988 -2.29085,-0.30078 -4.451666,0.27701 -6.872585,-0.9023 -2.576923,-1.25527 -7.111993,-7.01647 -9.487407,-10.39896 -1.311906,-1.86798 -2.455862,-4.16404 -3.804233,-5.92156 -1.713586,-2.23353 -3.742421,-3.38264 -5.31658,-5.96689 -1.64839,-2.70601 -2.659443,-6.2065 -3.989152,-9.30976 -4.853767,-13.72323 -3.099012,-5.43939 -2.943992,-16.30599 0.01425,-0.99976 -0.721985,-2.75635 -0.291935,-3.20523 0.392421,-0.4096 1.333151,2.02104 1.755657,1.67744 2.14999,-1.74845 -7.60092,-20.00446 -1.753884,-15.05999 -0.75583,-12.95365 -1.217252,-2.94866 2.584829,-10.51513 0.90532,-1.8017 0.893333,-4.96214 1.916753,-6.56391 1.986573,-3.10928 6.85824,-1.35352 8.2796,-5.86819 4.19617,-7.90756 -0.449604,-2.52577 8.164612,-1.53201 1.969718,0.22723 3.442435,-1.41679 5.363072,-1.40644 11.429446,0.0615 1.031635,1.00764 10.209712,4.90429 0.434156,0.18429 0.424263,-0.90268 0.636376,-1.35402 2.875365,2.27946 1.598488,1.25858 6.019943,4.84461 2.285982,1.85408 4.764781,2.62521 6.857627,5.57073 7.482423,10.53084 9.542243,17.31278 7.470503,28.02796 -0.25663,1.32714 -1.0498,-3.41492 -1.57461,-5.12242 -0.84397,-2.14143 -1.35069,-4.7372 -2.53191,-6.42428 -0.73108,-1.04419 0.22986,3.00517 0.92575,4.13032 2.40741,3.89267 6.33772,5.3308 7.84386,10.04964 4.29963,13.47116 4.17038,25.67923 -0.6637,31.23451 -1.59021,1.82747 -3.99595,1.72203 -5.99393,2.58308 -1.16529,-2.53312 -7.998992,-17.38518 -7.996008,-17.397 0.68465,-2.68609 4.771668,5.07593 5.714808,8.76159 3.27992,12.81729 3.4337,23.0759 -2.020011,26.72179 -2.299963,1.53757 -5.294151,1.09896 -7.941227,1.64844 -1.141816,0.0227 -8.767768,-30.57179 -7.625953,-30.59446 z"
       inkscape:connector-curvature="0" />
    <path
       style="color:#000000;clip-rule:nonzero;display:inline;overflow:visible;visibility:visible;opacity:1;isolation:auto;mix-blend-mode:normal;color-interpolation:sRGB;color-interpolation-filters:linearRGB;solid-color:#000000;solid-opacity:1;fill:#000000;fill-opacity:1;fill-rule:nonzero;stroke:none;stroke-width:64;stroke-linecap:butt;stroke-linejoin:miter;stroke-miterlimit:4;stroke-dasharray:none;stroke-dashoffset:0;stroke-opacity:0.60248449;marker:none;color-rendering:auto;image-rendering:auto;shape-rendering:auto;text-rendering:auto;enable-background:accumulate"
       id="path4284"
       d="m 192.29523,778.09726 c 7.64555,-8.87662 17.41964,-24.52724 31.87089,-21.93351 2.24351,0.40267 3.70509,3.26311 5.98395,3.30917 1.09143,0.022 -0.83809,-2.12102 -0.68677,-3.20213 0.34057,-2.4332 1.41528,-4.7056 2.12293,-7.05842 4.16355,-10.12706 3.36363,-10.754 16.67394,-19.2858 2.70313,-1.73269 12.25867,-2.08795 15.82198,-3.19676 1.05493,-0.32828 1.83896,-1.22875 2.80052,-1.77292 0.55006,-0.31131 1.14976,-0.52537 1.72463,-0.78804 2.16239,-1.59401 4.37762,-3.11874 6.4872,-4.78201 6.45108,-5.08635 9.00599,-9.12782 17.5738,-10.53662 5.88128,-0.96705 11.13933,1.29081 16.4947,3.02292 2.19305,0.70929 4.38093,1.43445 6.57141,2.15168 0.27039,0.01 0.13045,3.83348 -0.13992,3.82358 l 0,0 c -12.31271,4.75245 -2.66076,0.66804 -13.51347,6.15962 -1.6911,0.8557 -3.51337,1.45158 -5.15502,2.39872 -2.19686,1.2675 -4.10586,3.00225 -6.32736,4.22603 -2.68002,1.47638 -5.72259,2.25356 -8.33286,3.85002 -2.56552,1.56908 -4.72545,3.72106 -7.08815,5.5816 -2.27671,0.98965 -4.5932,1.89245 -6.83014,2.96894 -0.98919,0.47604 -1.78492,1.35147 -2.83213,1.68088 -0.56971,0.17919 -1.46187,-0.73874 -1.77667,-0.23125 -1.53932,2.48158 -0.91454,6.29631 -3.15058,8.17456 -1.96439,1.65011 -5.09629,0.59553 -7.64442,0.89333 -3.86569,4.21721 -7.73139,8.43442 -11.59711,12.65163 -3.05746,1.80815 -5.8059,4.29125 -9.17245,5.42443 -2.23041,0.7508 -4.71003,-0.0859 -7.0601,0.0395 -0.25174,0.0136 0.94554,0.28306 0.69402,0.30052 -1.34643,0.0935 -2.92867,-0.82113 -4.04847,-0.0677 -5.7085,3.84088 -8.70464,10.92789 -14.89061,14.29414 -0.57248,1.03053 -15.14623,-7.06565 -14.57374,-8.09615 z"
       inkscape:connector-curvature="0" />
    <rect
       style="color:#000000;clip-rule:nonzero;display:inline;overflow:visible;visibility:visible;opacity:1;isolation:auto;mix-blend-mode:normal;color-interpolation:sRGB;color-interpolation-filters:linearRGB;solid-color:#000000;solid-opacity:1;fill:#ffffff;fill-opacity:1;fill-rule:nonzero;stroke:none;stroke-width:1;stroke-linecap:butt;stroke-linejoin:miter;stroke-miterlimit:4;stroke-dasharray:none;stroke-dashoffset:0;stroke-opacity:0.60248449;marker:none;color-rendering:auto;image-rendering:auto;shape-rendering:auto;text-rendering:auto;enable-background:accumulate"
       id="rect4345"
       width="192.52948"
       height="62.968262"
       x="100.03595"
       y="980.23932" />
    <path
       style="color:#000000;clip-rule:nonzero;display:inline;overflow:visible;visibility:visible;opacity:1;isolation:auto;mix-blend-mode:normal;color-interpolation:sRGB;color-interpolation-filters:linearRGB;solid-color:#000000;solid-opacity:1;fill:none;fill-opacity:1;fill-rule:nonzero;stroke:#000000;stroke-width:4.71368837;stroke-linecap:butt;stroke-linejoin:miter;stroke-miterlimit:4;stroke-dasharray:none;stroke-dashoffset:0;stroke-opacity:1;marker:none;color-rendering:auto;image-rendering:auto;shape-rendering:auto;text-rendering:auto;enable-background:accumulate"
       d="m 195.86877,980.38184 0,62.75736"
       id="path4347"
       inkscape:connector-curvature="0" />
    <rect
       transform="matrix(0.99985859,-0.01681658,0.01681658,0.99985859,0,0)"
       y="973.91724"
       x="341.92334"
       height="57.34021"
       width="57.677128"
       id="rect4352"
       style="color:#000000;clip-rule:nonzero;display:inline;overflow:visible;visibility:visible;opacity:1;isolation:auto;mix-blend-mode:normal;color-interpolation:sRGB;color-interpolation-filters:linearRGB;solid-color:#000000;solid-opacity:1;fill:#e5bc58;fill-opacity:1;fill-rule:nonzero;stroke:#378b00;stroke-width:0;stroke-linecap:butt;stroke-linejoin:miter;stroke-miterlimit:4;stroke-dasharray:none;stroke-dashoffset:0;stroke-opacity:1;marker:none;color-rendering:auto;image-rendering:auto;shape-rendering:auto;text-rendering:auto;enable-background:accumulate" />
  </g>
</svg>
