<?xml version="1.0" encoding="UTF-8" standalone="no"?>
<!-- Created with Inkscape (http://www.inkscape.org/) -->

<svg
   xmlns:dc="http://purl.org/dc/elements/1.1/"
   xmlns:cc="http://creativecommons.org/ns#"
   xmlns:rdf="http://www.w3.org/1999/02/22-rdf-syntax-ns#"
   xmlns:svg="http://www.w3.org/2000/svg"
   xmlns="http://www.w3.org/2000/svg"
   xmlns:sodipodi="http://sodipodi.sourceforge.net/DTD/sodipodi-0.dtd"
   xmlns:inkscape="http://www.inkscape.org/namespaces/inkscape"
   width="54.186668mm"
   height="31.623398mm"
   viewBox="0 0 192.00001 112.05141"
   id="svg2"
   version="1.1"
   inkscape:version="0.91 r13725"
   sodipodi:docname="goebble.svg">
  <defs
     id="defs4" />
  <sodipodi:namedview
     id="base"
     pagecolor="#ffffff"
     bordercolor="#666666"
     borderopacity="1.0"
     inkscape:pageopacity="0.0"
     inkscape:pageshadow="2"
     inkscape:zoom="0.98994949"
     inkscape:cx="122.14285"
     inkscape:cy="36.633052"
     inkscape:document-units="px"
     inkscape:current-layer="layer1"
     showgrid="false"
     inkscape:window-width="1920"
     inkscape:window-height="1032"
     inkscape:window-x="0"
     inkscape:window-y="24"
     inkscape:window-maximized="1"
     fit-margin-top="0"
     fit-margin-left="0"
     fit-margin-right="0"
     fit-margin-bottom="0" />
  <metadata
     id="metadata7">
    <rdf:RDF>
      <cc:Work
         rdf:about="">
        <dc:format>image/svg+xml</dc:format>
        <dc:type
           rdf:resource="http://purl.org/dc/dcmitype/StillImage" />
        <dc:title></dc:title>
      </cc:Work>
    </rdf:RDF>
  </metadata>
  <g
     inkscape:label="Layer 1"
     inkscape:groupmode="layer"
     id="layer1"
     transform="translate(257.14285,-465.02507)">
    <rect
       style="color:#000000;clip-rule:nonzero;display:inline;overflow:visible;visibility:visible;opacity:1;isolation:auto;mix-blend-mode:normal;color-interpolation:sRGB;color-interpolation-filters:linearRGB;solid-color:#000000;solid-opacity:1;fill:#ffffff;fill-opacity:1;fill-rule:evenodd;stroke:none;stroke-width:5;stroke-linecap:butt;stroke-linejoin:miter;stroke-miterlimit:4;stroke-dasharray:none;stroke-dashoffset:0;stroke-opacity:1;marker:none;color-rendering:auto;image-rendering:auto;shape-rendering:auto;text-rendering:auto;enable-background:accumulate"
       id="rect4425"
       width="192"
       height="64"
       x="-257.14285"
       y="513.07648" />
    <text
       sodipodi:linespacing="125%"
       id="text4269"
       y="495.21936"
       x="-238.92857"
       style="font-style:normal;font-variant:normal;font-weight:500;font-stretch:normal;font-size:40px;line-height:125%;font-family:'Century Schoolbook L';-inkscape-font-specification:'Century Schoolbook L Medium';letter-spacing:0px;word-spacing:0px;fill:#000000;fill-opacity:0.77777782;stroke:none;stroke-width:1px;stroke-linecap:butt;stroke-linejoin:miter;stroke-opacity:1"
       xml:space="preserve"><tspan
         y="495.21936"
         x="-238.92857"
         id="tspan4271"
         sodipodi:role="line"><tspan
           id="tspan4273"
           style="fill:#000000;fill-opacity:0.77777782">G</tspan><tspan
           id="tspan4275"
           style="fill:#000000;fill-opacity:0.77777782">o</tspan><tspan
           id="tspan4277"
           style="fill:#000000;fill-opacity:0.77777782">e</tspan><tspan
           id="tspan4279"
           style="fill:#000000;fill-opacity:0.77777782">bb</tspan><tspan
           id="tspan4281"
           style="fill:#000000;fill-opacity:0.77777782">l</tspan><tspan
           id="tspan4283"
           style="fill:#000000;fill-opacity:0.77777782">e</tspan></tspan></text>
    <text
       xml:space="preserve"
       style="font-style:normal;font-variant:normal;font-weight:500;font-stretch:normal;font-size:40px;line-height:125%;font-family:'Century Schoolbook L';-inkscape-font-specification:'Century Schoolbook L Medium';letter-spacing:0px;word-spacing:0px;fill:#000000;fill-opacity:1;stroke:none;stroke-width:1px;stroke-linecap:butt;stroke-linejoin:miter;stroke-opacity:1"
       x="-238.57143"
       y="494.50507"
       id="text4141"
       sodipodi:linespacing="125%"><tspan
         sodipodi:role="line"
         id="tspan4143"
         x="-238.57143"
         y="494.50507"><tspan
           style="fill:#19a4d5;fill-opacity:1"
           id="tspan4145">G</tspan><tspan
           style="fill:#f80404;fill-opacity:1"
           id="tspan4191">o</tspan><tspan
           style="fill:#eeff06;fill-opacity:1"
           id="tspan4211">e</tspan><tspan
           style="fill:#e81ce2;fill-opacity:1"
           id="tspan4225">bb</tspan><tspan
           style="fill:#1ad1ff;fill-opacity:1"
           id="tspan4255">l</tspan><tspan
           style="fill:#12fc12;fill-opacity:1"
           id="tspan4267">e</tspan></tspan></text>
    <path
       inkscape:connector-curvature="0"
       id="path4400"
       style="font-style:normal;font-variant:normal;font-weight:500;font-stretch:normal;font-size:medium;line-height:125%;font-family:'Century Schoolbook L';-inkscape-font-specification:'Century Schoolbook L Medium';letter-spacing:0px;word-spacing:0px;fill:#000000;fill-opacity:0.77777782;stroke:none;stroke-width:1px;stroke-linecap:butt;stroke-linejoin:miter;stroke-opacity:1"
       d="m -212.92857,526.41648 -1.52,0 -1.56,2.44 c -2.6,-2.08 -4.36,-2.76 -7.28,-2.76 -3.16,0 -5.64,0.88 -8.16,2.92 -3.96,3.2 -5.8,7.24 -5.8,12.64 0,4.08 1.2,7.48 3.52,10.08 2.48,2.8 6.16,4.44 10,4.44 3.36,0 5.72,-1.04 8.32,-3.64 l 1.48,3.6 1.68,0 0,-8.8 c 0,-2.16 0,-2.2 0.24,-2.48 0.36,-0.4 1.2,-0.56 3.36,-0.56 l 0.6,0 0,-1.88 -12.72,0 0,1.88 0.76,0 c 3.36,0 3.64,0.2 3.64,2.4 0,1.72 -0.32,3.32 -0.8,4.28 -1,1.96 -3.56,3.32 -6.16,3.32 -2.56,0 -5.16,-1.32 -6.52,-3.32 -1.48,-2.2 -2.12,-5.04 -2.12,-9.32 0,-8.92 2.96,-13.68 8.52,-13.68 4.56,0 7.72,3.28 9.36,9.68 l 1.72,0 -0.56,-11.24 z" />
    <path
       inkscape:connector-curvature="0"
       id="path4402"
       style="font-style:normal;font-variant:normal;font-weight:500;font-stretch:normal;font-size:medium;line-height:125%;font-family:'Century Schoolbook L';-inkscape-font-specification:'Century Schoolbook L Medium';letter-spacing:0px;word-spacing:0px;fill:#000000;fill-opacity:0.77777782;stroke:none;stroke-width:1px;stroke-linecap:butt;stroke-linejoin:miter;stroke-opacity:1"
       d="m -197.75482,536.33648 c -4.88,0 -8.72,4.36 -8.72,9.96 0,5.48 3.84,9.88 8.64,9.88 4.8,0 8.64,-4.4 8.64,-9.92 0,-5.48 -3.84,-9.92 -8.56,-9.92 z m 0,1.72 c 2.8,0 4.36,2.92 4.36,8.2 0,5.32 -1.56,8.2 -4.44,8.2 -2.88,0 -4.44,-2.88 -4.44,-8.16 0,-5.44 1.52,-8.24 4.52,-8.24 z" />
    <path
       inkscape:connector-curvature="0"
       id="path4404"
       style="font-style:normal;font-variant:normal;font-weight:500;font-stretch:normal;font-size:medium;line-height:125%;font-family:'Century Schoolbook L';-inkscape-font-specification:'Century Schoolbook L Medium';letter-spacing:0px;word-spacing:0px;fill:#000000;fill-opacity:0.77777782;stroke:none;stroke-width:1px;stroke-linecap:butt;stroke-linejoin:miter;stroke-opacity:1"
       d="m -169.23482,546.57648 c 0.04,-6 -3.36,-10.24 -8.24,-10.24 -5.12,0 -8.96,4.44 -8.96,10.44 0,5.6 3.64,9.4 9.04,9.4 3.8,0 6.52,-1.88 8.16,-5.68 l -1.4,-0.76 c -1.64,3.08 -3.32,4.28 -6,4.28 -2.04,0 -3.52,-0.88 -4.56,-2.64 -0.72,-1.2 -1.04,-2.6 -1,-4.8 l 12.96,0 z m -12.92,-1.72 c 0,-1.24 0.16,-2.12 0.56,-3.24 0.84,-2.4 2.12,-3.56 4.04,-3.56 2.44,0 4.04,2.12 4.04,5.32 0,1.16 -0.36,1.48 -1.64,1.48 l -7,0 z" />
    <path
       inkscape:connector-curvature="0"
       id="path4406"
       style="font-style:normal;font-variant:normal;font-weight:500;font-stretch:normal;font-size:medium;line-height:125%;font-family:'Century Schoolbook L';-inkscape-font-specification:'Century Schoolbook L Medium';letter-spacing:0px;word-spacing:0px;fill:#000000;fill-opacity:0.77777782;stroke:none;stroke-width:1px;stroke-linecap:butt;stroke-linejoin:miter;stroke-opacity:1"
       d="m -160.63482,526.09648 -6.88,0.44 0,1.72 1.4,0 c 1.48,0 1.72,0.28 1.72,2 l 0,15.56 c 0,5.36 -0.2,7.96 -0.72,10.32 l 1.52,0 1.96,-3.12 c 1.64,2.16 3.52,3.16 6,3.16 4.92,0 8.6,-4.28 8.6,-10.04 0,-5.76 -3.36,-9.8 -8.16,-9.8 -2.44,0 -3.92,0.84 -5.44,3.12 l 0,-13.36 z m 4.72,12.28 c 3,0 4.68,2.92 4.68,8.16 0,5.04 -1.64,7.92 -4.56,7.92 -3.16,0 -5.04,-2.92 -5.04,-7.84 0,-5.32 1.72,-8.24 4.92,-8.24 z" />
    <path
       inkscape:connector-curvature="0"
       id="path4408"
       style="font-style:normal;font-variant:normal;font-weight:500;font-stretch:normal;font-size:medium;line-height:125%;font-family:'Century Schoolbook L';-inkscape-font-specification:'Century Schoolbook L Medium';letter-spacing:0px;word-spacing:0px;fill:#000000;fill-opacity:0.77777782;stroke:none;stroke-width:1px;stroke-linecap:butt;stroke-linejoin:miter;stroke-opacity:1"
       d="m -138.3692,536.27505 -6.88,0.44 0,1.72 1.4,0 c 1.48,0 1.72,0.28 1.72,2 l 0,15.56 c 0,5.36 -0.2,7.96 -0.72,10.32 l 1.52,0 1.96,-3.12 c 1.64,2.16 3.52,3.16 6,3.16 4.92,0 8.6,-4.28 8.6,-10.04 0,-5.76 -3.36,-9.8 -8.16,-9.8 -2.44,0 -3.92,0.84 -5.44,3.12 l 0,-13.36 z m 4.72,12.28 c 3,0 4.68,2.92 4.68,8.16 0,5.04 -1.64,7.92 -4.56,7.92 -3.16,0 -5.04,-2.92 -5.04,-7.84 0,-5.32 1.72,-8.24 4.92,-8.24 z" />
    <path
       inkscape:connector-curvature="0"
       id="path4410"
       style="font-style:normal;font-variant:normal;font-weight:500;font-stretch:normal;font-size:medium;line-height:125%;font-family:'Century Schoolbook L';-inkscape-font-specification:'Century Schoolbook L Medium';letter-spacing:0px;word-spacing:0px;fill:#000000;fill-opacity:0.77777782;stroke:none;stroke-width:1px;stroke-linecap:butt;stroke-linejoin:miter;stroke-opacity:1"
       d="m -115.14357,526.09648 -7.4,0.44 0,1.72 1.96,0 c 1.44,0 1.68,0.28 1.68,2 l 0,20.4 0,1.6 c 0,1.6 -0.44,1.88 -3,1.88 l -0.28,0 0,1.44 10.36,0 0,-1.44 -0.28,0 c -2.6,0 -3.04,-0.28 -3.04,-1.88 l 0,-1.6 0,-24.56 z" />
    <path
       inkscape:connector-curvature="0"
       id="path4412"
       style="font-style:normal;font-variant:normal;font-weight:500;font-stretch:normal;font-size:medium;line-height:125%;font-family:'Century Schoolbook L';-inkscape-font-specification:'Century Schoolbook L Medium';letter-spacing:0px;word-spacing:0px;fill:#000000;fill-opacity:0.77777782;stroke:none;stroke-width:1px;stroke-linecap:butt;stroke-linejoin:miter;stroke-opacity:1"
       d="m -92.125449,546.57648 c 0.04,-6 -3.36,-10.24 -8.240001,-10.24 -5.12,0 -8.96,4.44 -8.96,10.44 0,5.6 3.64,9.4 9.04,9.4 3.800001,0 6.520001,-1.88 8.160001,-5.68 l -1.4,-0.76 c -1.64,3.08 -3.32,4.28 -6,4.28 -2.040001,0 -3.520001,-0.88 -4.560001,-2.64 -0.72,-1.2 -1.04,-2.6 -1,-4.8 l 12.960001,0 z m -12.920001,-1.72 c 0,-1.24 0.16,-2.12 0.56,-3.24 0.84,-2.4 2.12,-3.56 4.04,-3.56 2.440001,0 4.040001,2.12 4.040001,5.32 0,1.16 -0.36,1.48 -1.64,1.48 l -7.000001,0 z" />
    <path
       inkscape:connector-curvature="0"
       id="path4378"
       style="font-style:normal;font-variant:normal;font-weight:500;font-stretch:normal;font-size:medium;line-height:125%;font-family:'Century Schoolbook L';-inkscape-font-specification:'Century Schoolbook L Medium';letter-spacing:0px;word-spacing:0px;fill:#19a4d5;fill-opacity:1;stroke:none;stroke-width:1px;stroke-linecap:butt;stroke-linejoin:miter;stroke-opacity:1"
       d="m -212.57143,525.70218 -1.52,0 -1.56,2.44 c -2.6,-2.08 -4.36,-2.76 -7.28,-2.76 -3.16,0 -5.64,0.88 -8.16,2.92 -3.96,3.2 -5.8,7.24 -5.8,12.64 0,4.08 1.2,7.48 3.52,10.08 2.48,2.8 6.16,4.44 10,4.44 3.36,0 5.72,-1.04 8.32,-3.64 l 1.48,3.6 1.68,0 0,-8.8 c 0,-2.16 0,-2.2 0.24,-2.48 0.36,-0.4 1.2,-0.56 3.36,-0.56 l 0.6,0 0,-1.88 -12.72,0 0,1.88 0.76,0 c 3.36,0 3.64,0.2 3.64,2.4 0,1.72 -0.32,3.32 -0.8,4.28 -1,1.96 -3.56,3.32 -6.16,3.32 -2.56,0 -5.16,-1.32 -6.52,-3.32 -1.48,-2.2 -2.12,-5.04 -2.12,-9.32 0,-8.92 2.96,-13.68 8.52,-13.68 4.56,0 7.72,3.28 9.36,9.68 l 1.72,0 -0.56,-11.24 z" />
    <path
       inkscape:connector-curvature="0"
       id="path4380"
       style="font-style:normal;font-variant:normal;font-weight:500;font-stretch:normal;font-size:medium;line-height:125%;font-family:'Century Schoolbook L';-inkscape-font-specification:'Century Schoolbook L Medium';letter-spacing:0px;word-spacing:0px;fill:#f80404;fill-opacity:1;stroke:none;stroke-width:1px;stroke-linecap:butt;stroke-linejoin:miter;stroke-opacity:1"
       d="m -197.39768,535.62218 c -4.88,0 -8.72,4.36 -8.72,9.96 0,5.48 3.84,9.88 8.64,9.88 4.8,0 8.64,-4.4 8.64,-9.92 0,-5.48 -3.84,-9.92 -8.56,-9.92 z m 0,1.72 c 2.8,0 4.36,2.92 4.36,8.2 0,5.32 -1.56,8.2 -4.44,8.2 -2.88,0 -4.44,-2.88 -4.44,-8.16 0,-5.44 1.52,-8.24 4.52,-8.24 z" />
    <path
       inkscape:connector-curvature="0"
       id="path4382"
       style="font-style:normal;font-variant:normal;font-weight:500;font-stretch:normal;font-size:medium;line-height:125%;font-family:'Century Schoolbook L';-inkscape-font-specification:'Century Schoolbook L Medium';letter-spacing:0px;word-spacing:0px;fill:#eeff06;fill-opacity:1;stroke:none;stroke-width:1px;stroke-linecap:butt;stroke-linejoin:miter;stroke-opacity:1"
       d="m -168.87768,545.86218 c 0.04,-6 -3.36,-10.24 -8.24,-10.24 -5.12,0 -8.96,4.44 -8.96,10.44 0,5.6 3.64,9.4 9.04,9.4 3.8,0 6.52,-1.88 8.16,-5.68 l -1.4,-0.76 c -1.64,3.08 -3.32,4.28 -6,4.28 -2.04,0 -3.52,-0.88 -4.56,-2.64 -0.72,-1.2 -1.04,-2.6 -1,-4.8 l 12.96,0 z m -12.92,-1.72 c 0,-1.24 0.16,-2.12 0.56,-3.24 0.84,-2.4 2.12,-3.56 4.04,-3.56 2.44,0 4.04,2.12 4.04,5.32 0,1.16 -0.36,1.48 -1.64,1.48 l -7,0 z" />
    <path
       inkscape:connector-curvature="0"
       id="path4384"
       style="font-style:normal;font-variant:normal;font-weight:500;font-stretch:normal;font-size:medium;line-height:125%;font-family:'Century Schoolbook L';-inkscape-font-specification:'Century Schoolbook L Medium';letter-spacing:0px;word-spacing:0px;fill:#e81ce2;fill-opacity:1;stroke:none;stroke-width:1px;stroke-linecap:butt;stroke-linejoin:miter;stroke-opacity:1"
       d="m -160.27768,525.38218 -6.88,0.44 0,1.72 1.4,0 c 1.48,0 1.72,0.28 1.72,2 l 0,15.56 c 0,5.36 -0.2,7.96 -0.72,10.32 l 1.52,0 1.96,-3.12 c 1.64,2.16 3.52,3.16 6,3.16 4.92,0 8.6,-4.28 8.6,-10.04 0,-5.76 -3.36,-9.8 -8.16,-9.8 -2.44,0 -3.92,0.84 -5.44,3.12 l 0,-13.36 z m 4.72,12.28 c 3,0 4.68,2.92 4.68,8.16 0,5.04 -1.64,7.92 -4.56,7.92 -3.16,0 -5.04,-2.92 -5.04,-7.84 0,-5.32 1.72,-8.24 4.92,-8.24 z" />
    <path
       inkscape:connector-curvature="0"
       id="path4386"
       style="font-style:normal;font-variant:normal;font-weight:500;font-stretch:normal;font-size:medium;line-height:125%;font-family:'Century Schoolbook L';-inkscape-font-specification:'Century Schoolbook L Medium';letter-spacing:0px;word-spacing:0px;fill:#e81ce2;fill-opacity:1;stroke:none;stroke-width:1px;stroke-linecap:butt;stroke-linejoin:miter;stroke-opacity:1"
       d="m -138.01205,535.56075 -6.88,0.44 0,1.72 1.4,0 c 1.48,0 1.72,0.28 1.72,2 l 0,15.56 c 0,5.36 -0.2,7.96 -0.72,10.32 l 1.52,0 1.96,-3.12 c 1.64,2.16 3.52,3.16 6,3.16 4.92,0 8.6,-4.28 8.6,-10.04 0,-5.76 -3.36,-9.8 -8.16,-9.8 -2.44,0 -3.92,0.84 -5.44,3.12 l 0,-13.36 z m 4.72,12.28 c 3,0 4.68,2.92 4.68,8.16 0,5.04 -1.64,7.92 -4.56,7.92 -3.16,0 -5.04,-2.92 -5.04,-7.84 0,-5.32 1.72,-8.24 4.92,-8.24 z" />
    <path
       inkscape:connector-curvature="0"
       id="path4388"
       style="font-style:normal;font-variant:normal;font-weight:500;font-stretch:normal;font-size:medium;line-height:125%;font-family:'Century Schoolbook L';-inkscape-font-specification:'Century Schoolbook L Medium';letter-spacing:0px;word-spacing:0px;fill:#1ad1ff;fill-opacity:1;stroke:none;stroke-width:1px;stroke-linecap:butt;stroke-linejoin:miter;stroke-opacity:1"
       d="m -114.78643,525.38218 -7.4,0.44 0,1.72 1.96,0 c 1.44,0 1.68,0.28 1.68,2 l 0,20.4 0,1.6 c 0,1.6 -0.44,1.88 -3,1.88 l -0.28,0 0,1.44 10.36,0 0,-1.44 -0.28,0 c -2.6,0 -3.04,-0.28 -3.04,-1.88 l 0,-1.6 0,-24.56 z" />
    <path
       inkscape:connector-curvature="0"
       id="path4390"
       style="font-style:normal;font-variant:normal;font-weight:500;font-stretch:normal;font-size:medium;line-height:125%;font-family:'Century Schoolbook L';-inkscape-font-specification:'Century Schoolbook L Medium';letter-spacing:0px;word-spacing:0px;fill:#12fc12;fill-opacity:1;stroke:none;stroke-width:1px;stroke-linecap:butt;stroke-linejoin:miter;stroke-opacity:1"
       d="m -91.768301,545.86218 c 0.04,-6 -3.36,-10.24 -8.239999,-10.24 -5.12,0 -8.96,4.44 -8.96,10.44 0,5.6 3.64,9.4 9.039999,9.4 3.8,0 6.52,-1.88 8.16,-5.68 l -1.4,-0.76 c -1.64,3.08 -3.32,4.28 -6,4.28 -2.039999,0 -3.519999,-0.88 -4.559999,-2.64 -0.72,-1.2 -1.04,-2.6 -1,-4.8 l 12.959999,0 z m -12.919999,-1.72 c 0,-1.24 0.16,-2.12 0.56,-3.24 0.84,-2.4 2.12,-3.56 4.04,-3.56 2.439999,0 4.039999,2.12 4.039999,5.32 0,1.16 -0.36,1.48 -1.64,1.48 l -6.999999,0 z" />
    <text
       xml:space="preserve"
       style="font-style:normal;font-weight:normal;font-size:10px;line-height:125%;font-family:Sans;letter-spacing:0px;word-spacing:0px;fill:#000000;fill-opacity:0.50196078;stroke:none;stroke-width:1px;stroke-linecap:butt;stroke-linejoin:miter;stroke-opacity:1"
       x="-119.46429"
       y="565.75507"
       id="text4421"
       sodipodi:linespacing="125%"><tspan
         sodipodi:role="line"
         id="tspan4423"
         x="-119.46429"
         y="565.75507">world</tspan></text>
  </g>
</svg>
