<?xml version="1.0" encoding="UTF-8" standalone="no"?>
<!-- Created with Inkscape (http://www.inkscape.org/) -->

<svg
   xmlns:dc="http://purl.org/dc/elements/1.1/"
   xmlns:cc="http://creativecommons.org/ns#"
   xmlns:rdf="http://www.w3.org/1999/02/22-rdf-syntax-ns#"
   xmlns:svg="http://www.w3.org/2000/svg"
   xmlns="http://www.w3.org/2000/svg"
   xmlns:xlink="http://www.w3.org/1999/xlink"
   xmlns:sodipodi="http://sodipodi.sourceforge.net/DTD/sodipodi-0.dtd"
   xmlns:inkscape="http://www.inkscape.org/namespaces/inkscape"
   width="23cm"
   height="13cm"
   viewBox="0 0 814.96059 460.6299"
   id="svg2"
   version="1.1"
   inkscape:version="0.91 r13725"
   sodipodi:docname="OGTatt.svg"
   inkscape:export-filename="/home/frode/Sync/Creations/Games/OGTatt/Vectors/OGTatt.png"
   inkscape:export-xdpi="70.729233"
   inkscape:export-ydpi="70.729233">
  <defs
     id="defs4">
    <linearGradient
       inkscape:collect="always"
       id="linearGradient4666">
      <stop
         style="stop-color:#000000;stop-opacity:1;"
         offset="0"
         id="stop4668" />
      <stop
         style="stop-color:#2b333a;stop-opacity:0.81007755"
         offset="1"
         id="stop4670" />
    </linearGradient>
    <linearGradient
       inkscape:collect="always"
       id="linearGradient4618">
      <stop
         style="stop-color:#ffffff;stop-opacity:0.2248062"
         offset="0"
         id="stop4620" />
      <stop
         style="stop-color:#ffffff;stop-opacity:0;"
         offset="1"
         id="stop4622" />
    </linearGradient>
    <linearGradient
       inkscape:collect="always"
       id="linearGradient4578">
      <stop
         style="stop-color:#2e3a42;stop-opacity:1"
         offset="0"
         id="stop4580" />
      <stop
         style="stop-color:#000000;stop-opacity:1"
         offset="1"
         id="stop4582" />
    </linearGradient>
    <linearGradient
       inkscape:collect="always"
       id="linearGradient4413">
      <stop
         style="stop-color:#ffffff;stop-opacity:1;"
         offset="0"
         id="stop4415" />
      <stop
         style="stop-color:#8c8c8c;stop-opacity:1"
         offset="1"
         id="stop4417" />
    </linearGradient>
    <linearGradient
       inkscape:collect="always"
       id="linearGradient4144">
      <stop
         style="stop-color:#c1c1c1;stop-opacity:1"
         offset="0"
         id="stop4146" />
      <stop
         id="stop4162"
         offset="0.25"
         style="stop-color:#535353;stop-opacity:1;" />
      <stop
         id="stop4160"
         offset="0.5"
         style="stop-color:#111111;stop-opacity:1" />
      <stop
         style="stop-color:#6b775d;stop-opacity:1"
         offset="1"
         id="stop4148" />
    </linearGradient>
    <radialGradient
       inkscape:collect="always"
       xlink:href="#linearGradient4144"
       id="radialGradient4150"
       cx="-35.498489"
       cy="418.60733"
       fx="-35.498489"
       fy="418.60733"
       r="291.42856"
       gradientUnits="userSpaceOnUse"
       gradientTransform="matrix(0.81036566,0,0,0.81036566,-2029.0772,264.25933)" />
    <radialGradient
       inkscape:collect="always"
       xlink:href="#linearGradient4413"
       id="radialGradient4419"
       cx="-2071.8376"
       cy="581.02411"
       fx="-2071.8376"
       fy="581.02411"
       r="81.889382"
       gradientUnits="userSpaceOnUse"
       gradientTransform="matrix(6.8704627,0,0,4.743258,12171.297,-2174.9667)" />
    <filter
       inkscape:collect="always"
       style="color-interpolation-filters:sRGB"
       id="filter4546"
       x="-0.0047274508"
       width="1.0094549"
       y="-0.0082099891"
       height="1.01642">
      <feGaussianBlur
         inkscape:collect="always"
         stdDeviation="1.5111457"
         id="feGaussianBlur4548" />
    </filter>
    <filter
       inkscape:collect="always"
       style="color-interpolation-filters:sRGB"
       id="filter4552"
       x="-0.0063990274"
       width="1.0127981"
       y="-0.0056478163"
       height="1.0112956">
      <feGaussianBlur
         inkscape:collect="always"
         stdDeviation="0.67149154"
         id="feGaussianBlur4554" />
    </filter>
    <filter
       inkscape:collect="always"
       style="color-interpolation-filters:sRGB"
       id="filter4565"
       x="-0.0050690276"
       width="1.0101381"
       y="-0.0073498694"
       height="1.0146997">
      <feGaussianBlur
         inkscape:collect="always"
         stdDeviation="0.24475291"
         id="feGaussianBlur4567" />
    </filter>
    <radialGradient
       inkscape:collect="always"
       xlink:href="#linearGradient4578"
       id="radialGradient4586"
       cx="-1568.0653"
       cy="445.81729"
       fx="-1568.0653"
       fy="445.81729"
       r="168.38707"
       gradientTransform="matrix(-0.58207006,0.0508986,-0.11988957,-1.3710423,-2340.873,1110.0788)"
       gradientUnits="userSpaceOnUse" />
    <linearGradient
       inkscape:collect="always"
       xlink:href="#linearGradient4578"
       id="linearGradient4598"
       x1="-1434.953"
       y1="555.93732"
       x2="-1658.4015"
       y2="520.43732"
       gradientUnits="userSpaceOnUse" />
    <linearGradient
       inkscape:collect="always"
       xlink:href="#linearGradient4618"
       id="linearGradient4624"
       x1="-1410.3898"
       y1="494.22629"
       x2="-1421.0973"
       y2="526.92999"
       gradientUnits="userSpaceOnUse" />
    <filter
       inkscape:collect="always"
       style="color-interpolation-filters:sRGB"
       id="filter4642"
       x="-0.24623563"
       width="1.4924713"
       y="-0.11416111"
       height="1.2283222">
      <feGaussianBlur
         inkscape:collect="always"
         stdDeviation="1.9697143"
         id="feGaussianBlur4644" />
    </filter>
    <linearGradient
       inkscape:collect="always"
       xlink:href="#linearGradient4666"
       id="linearGradient4672"
       x1="-1591.5173"
       y1="672.97351"
       x2="-1591.5173"
       y2="719.47351"
       gradientUnits="userSpaceOnUse" />
  </defs>
  <sodipodi:namedview
     id="base"
     pagecolor="#ffffff"
     bordercolor="#666666"
     borderopacity="1.0"
     inkscape:pageopacity="0.0"
     inkscape:pageshadow="2"
     inkscape:zoom="1.7432365"
     inkscape:cx="407.56064"
     inkscape:cy="230.39474"
     inkscape:document-units="px"
     inkscape:current-layer="layer1"
     showgrid="false"
     showborder="true"
     inkscape:snap-global="false"
     inkscape:window-width="1920"
     inkscape:window-height="1032"
     inkscape:window-x="0"
     inkscape:window-y="24"
     inkscape:window-maximized="1"
     showguides="false"
     fit-margin-top="0"
     fit-margin-left="0"
     fit-margin-right="0"
     fit-margin-bottom="0"
     units="cm" />
  <metadata
     id="metadata7">
    <rdf:RDF>
      <cc:Work
         rdf:about="">
        <dc:format>image/svg+xml</dc:format>
        <dc:type
           rdf:resource="http://purl.org/dc/dcmitype/StillImage" />
        <dc:title></dc:title>
      </cc:Work>
    </rdf:RDF>
  </metadata>
  <g
     inkscape:label="Layer 1"
     inkscape:groupmode="layer"
     id="layer1"
     transform="translate(2199.5458,-349.29784)">
    <path
       style="color:#000000;clip-rule:nonzero;display:inline;overflow:visible;visibility:visible;opacity:1;isolation:auto;mix-blend-mode:normal;color-interpolation:sRGB;color-interpolation-filters:linearRGB;solid-color:#000000;solid-opacity:1;fill:#020b2c;fill-opacity:1;fill-rule:evenodd;stroke:none;stroke-width:1px;stroke-linecap:butt;stroke-linejoin:miter;stroke-miterlimit:4;stroke-dasharray:none;stroke-dashoffset:0;stroke-opacity:1;color-rendering:auto;image-rendering:auto;shape-rendering:auto;text-rendering:auto;enable-background:accumulate;filter:url(#filter4546)"
       d="M 631.1875 9.3632812 C 567.32177 9.0632296 499.30037 38.041183 498.71875 86.730469 C 498.05775 142.05537 571.02916 154.45542 587.35156 102.40234 C 564.52243 135.55494 503.39335 123.93818 503.12305 88.982422 C 533.85953 119.38503 549.86615 114.02776 559.09766 94.947266 C 551.95116 103.31069 536.60752 107.19832 524.85352 101.00391 C 513.99599 95.281921 503.24811 87.670504 505.17773 76.396484 C 519.39294 28.704951 595.70851 9.7612443 665.94922 36.917969 C 713.90834 55.460127 720.60971 117.21426 667.59961 165.2793 C 555.30545 174.83931 450.17426 165.08748 406.31836 159.89062 L 320.91211 110.65039 C 318.53751 109.2814 315.85643 108.52937 313.11523 108.46484 C 312.92763 108.45984 312.73993 108.45894 312.55273 108.46094 L 312.55273 108.46289 C 309.74373 108.49329 306.98713 109.24465 304.54883 110.65039 L 209.16211 165.64453 A 145.55106 145.55106 0 0 0 169.52734 160.00586 A 145.55106 145.55106 0 0 0 23.976562 305.55664 A 145.55106 145.55106 0 0 0 169.52734 451.10938 A 145.55106 145.55106 0 0 0 284.49609 394.5293 L 305.37891 406.56836 C 310.44181 409.48711 316.67909 409.48711 321.74219 406.56836 L 431.30273 343.40234 C 436.36523 340.48321 439.48397 335.08766 439.48438 329.25 L 439.48438 288.49609 C 446.70519 285.82529 454.23175 280.98643 461.17578 273.39453 C 452.41802 278.63271 445.04228 281.81075 439.08398 283.39062 C 438.96621 282.83685 438.82196 282.29385 438.6543 281.76172 L 438.6543 272.16992 C 438.65373 266.83628 436.32208 262.07369 432.66797 258.93359 C 433.60438 258.22734 434.46298 257.42042 435.23633 256.52734 C 448.11721 246.20893 470.00944 235.78064 501.73242 230.52148 C 502.11275 257.9345 497.36682 287.05642 477.98828 314.54688 C 463.02728 335.77062 443.43299 367.05758 458.36719 374.02734 C 481.31896 384.73894 508.4692 359.58609 534.51172 335.08984 C 533.02238 354.19186 540.22591 371.77723 564.75781 372.04102 C 592.59271 372.34033 598.50781 350.81836 598.50781 350.81836 C 601.08815 372.75072 617.1363 386.57205 651.06055 351.06055 L 651.06055 360.75391 C 651.06055 366.30413 656.29746 373.43945 661.84766 373.43945 L 714.95703 373.43945 L 720.94531 355.36133 L 672.98047 355.36133 L 672.98047 264.85742 L 724.99609 264.85742 L 724.99609 343.13086 L 745.17578 282.21484 L 745.17578 264.85742 L 750.92578 264.85742 L 756.18945 248.9668 L 756.9707 246.14453 L 745.17578 246.14453 L 745.17578 225.44336 L 724.99609 225.44336 L 724.99609 246.14453 L 672.98047 246.14453 L 672.98047 225.79102 L 651.06055 225.79102 L 651.06055 246.14453 L 632.04492 246.14453 C 630.38882 251.05463 629.09598 256.23962 627.52148 264.85742 L 651.06055 264.85742 L 651.06055 333.4375 L 651.04492 333.42188 C 623.55852 369.95452 615.90342 364.73487 614.51172 341.77148 C 613.11992 318.80809 624.60156 278.44727 624.60156 278.44727 L 607.90234 275.66406 C 607.90234 275.66406 606.50937 279.14467 604.42188 288.88672 C 595.02778 267.31505 568.11585 270.60909 548.40625 296.88867 C 544.00271 302.76004 540.1163 310.73342 537.54102 319.29297 C 513.33274 357.20003 474.09555 371.74254 480.54688 340.84375 C 485.32828 317.94344 512.2007 283.78924 526.77734 235.90625 C 564.66119 254.94055 590.5693 288.97985 610.74609 249.6582 C 603.29989 252.17641 603.13083 245.11422 614.45703 222.91797 C 583.98458 238.44896 555.50925 236.95058 528.43359 230.23438 C 528.68816 229.31534 528.92325 228.37607 529.16797 227.44727 C 576.54827 223.29658 635.84721 205.67124 679.78711 177.59766 C 724.653 174.52146 776.43819 171.11023 774.57227 194.0293 L 789.91797 151.58984 C 797.05577 131.85007 772.07091 150.87198 740.25391 156.22266 C 727.34654 158.39329 714.37593 160.2379 701.42188 161.80273 C 731.73475 136.32969 749.00085 104.44329 738.97656 67.701172 C 728.01999 27.541927 680.86085 9.5966548 631.1875 9.3632812 z M 537.48633 61.089844 A 5.398671 6.0139614 5.5273642 0 0 532.25586 64.705078 A 5.398671 6.0139614 5.5273642 0 0 534.91992 72.607422 A 5.398671 6.0139614 5.5273642 0 0 542.08398 69.480469 A 5.398671 6.0139614 5.5273642 0 0 539.41992 61.580078 A 5.398671 6.0139614 5.5273642 0 0 537.48633 61.089844 z M 520.75586 72.082031 A 5.4786222 4.718205 63.300953 0 0 516.36523 75.798828 A 5.4786222 4.718205 63.300953 0 0 520.25 82.496094 A 5.4786222 4.718205 63.300953 0 0 525.95508 79.027344 A 5.4786222 4.718205 63.300953 0 0 526.0293 78.332031 L 520.16992 76.683594 L 524.50586 73.994141 A 5.4786222 4.718205 63.300953 0 0 522.07227 72.328125 A 5.4786222 4.718205 63.300953 0 0 520.75586 72.082031 z M 543.23242 80.177734 A 4.4367547 5.0055631 60.338028 0 0 542.70312 80.189453 L 543.66406 83.291016 L 539.00781 81.980469 A 4.4367547 5.0055631 60.338028 0 0 538.08398 83.371094 A 4.4367547 5.0055631 60.338028 0 0 540.60352 89.125 A 4.4367547 5.0055631 60.338028 0 0 547.01758 86.144531 A 4.4367547 5.0055631 60.338028 0 0 544.49805 80.388672 A 4.4367547 5.0055631 60.338028 0 0 543.23242 80.177734 z M 313.56055 158.61914 L 384.59375 199.57227 L 384.59375 212.76172 L 316.07031 247.17383 L 346.64453 247.1875 L 330.91602 255.08594 L 312.17188 255.09375 L 312.17188 277.30273 A 145.55106 145.55106 0 0 0 258.33203 190.46094 L 313.56055 158.61914 z M 649.64648 179.40039 C 621.72713 198.51612 582.53361 214.06092 530.64062 221.61328 C 533.2513 210.49235 535.10766 198.6971 535.83984 186.19727 C 579.45887 181.90382 622.15475 180.66323 649.64648 179.40039 z M 498.45312 190.72656 C 499.71755 200.71562 500.9269 211.23326 501.46484 222.10547 C 480.11075 214.84492 459.55569 206.7615 439.48438 204.2168 L 439.48438 203.22656 C 457.16424 197.86267 477.39876 193.82226 498.45312 190.72656 z M 485.13281 225.13867 C 490.26571 225.08363 495.2208 225.58062 500.01953 226.48438 C 473.76256 231.40703 453.99374 237.43763 439.48438 243.82031 L 439.48438 239.82227 C 456.06803 229.39876 471.22987 225.28777 485.13281 225.13867 z M 487.16016 245.26953 C 457.88547 317.40387 435.31725 367.19012 412.81836 395.66602 L 420.95117 395.68164 C 444.68401 360.78847 465.02039 307.45611 487.16016 245.26953 z M 420.95117 395.68164 C 419.76474 397.426 418.57126 399.1264 417.36719 400.77734 C 491.09177 398.58824 624.51287 396.75812 700.1582 398.02344 C 706.2387 398.12514 652.48811 434.87331 748.84961 429.58398 C 647.14271 430.83966 720.45674 396.24318 702.21094 396.20898 L 420.95117 395.68164 z M 417.36719 400.77734 C 414.30935 400.86814 411.18084 400.95894 408.33789 401.05078 C 398.45685 412.30483 388.50415 419.49427 377.91992 422.64062 C 339.10362 434.17953 329.17234 409.72026 365.58594 403.25977 C 369.50582 402.5643 385.33508 401.79389 408.33789 401.05078 C 409.83254 399.34844 411.32503 397.55606 412.81836 395.66602 L 389.66602 395.62305 C 321.53712 395.62305 295.69593 437.324 354.42773 439.08594 C 378.97347 439.82231 399.20911 425.67449 417.36719 400.77734 z M 577.71875 286.83594 C 590.84546 286.89982 600.99764 301.83482 597.8125 316.37305 C 590.5106 349.701 580.44047 356.25564 562.32227 355.68945 C 551.18857 355.34152 537.01871 337.99964 551.53711 309.06641 C 559.66672 292.86502 569.30419 286.79499 577.71875 286.83594 z M 405.92773 304.24609 L 405.92773 304.86523 L 391.64844 313.09766 L 370.20703 313.09766 L 385.33203 304.34375 L 405.92773 304.24609 z M 312.37305 333.18164 L 312.25781 346.63281 L 313.2207 346.07617 L 313.11523 358.375 L 312.73047 358.59766 L 306.27734 354.87695 A 145.55106 145.55106 0 0 0 312.37305 333.18164 z "
       transform="translate(-2199.5458,349.29784)"
       id="path4476" />
    <path
       sodipodi:nodetypes="csscsccc"
       style="color:#000000;clip-rule:nonzero;display:inline;overflow:visible;visibility:visible;opacity:1;isolation:auto;mix-blend-mode:normal;color-interpolation:sRGB;color-interpolation-filters:linearRGB;solid-color:#000000;solid-opacity:1;fill:url(#linearGradient4598);fill-opacity:1;fill-rule:evenodd;stroke:none;stroke-width:1px;stroke-linecap:butt;stroke-linejoin:miter;stroke-miterlimit:4;stroke-dasharray:none;stroke-dashoffset:0;stroke-opacity:1;color-rendering:auto;image-rendering:auto;shape-rendering:auto;text-rendering:auto;enable-background:accumulate"
       d="m -1814.953,506.36373 c 0,0 183.5629,28.0995 355.6615,-0.84229 31.817,-5.35068 56.8011,-24.37392 49.6633,-4.63415 l -15.3459,42.43942 c 2.1768,-26.73759 -68.6913,-17.64035 -116.372,-15.04535 -52.9062,2.87939 -188.2616,3.99576 -249.49,36.46946 l -24.1169,0 z"
       id="path4208"
       inkscape:connector-curvature="0" />
    <g
       id="g4661"
       style="fill-opacity:1;fill:url(#linearGradient4672)">
      <path
         sodipodi:nodetypes="ccscssc"
         inkscape:connector-curvature="0"
         d="m -1660.2312,665.75365 c -24.0072,40.01196 -65.3774,56.0498 -58.7668,24.38816 6.6107,-31.66164 55.466,-84.81646 55.6399,-166.05814 -6.7846,9.91601 -22.7893,13.04737 -38.0983,13.04737 4.871,37.92438 9.8213,84.26646 -20.1007,126.71391 -14.961,21.22374 -34.5556,52.51095 -19.6214,59.48071 23.3395,10.89255 51.0254,-15.29849 77.4681,-40.1755"
         style="color:#000000;clip-rule:nonzero;display:inline;overflow:visible;visibility:visible;opacity:1;isolation:auto;mix-blend-mode:normal;color-interpolation:sRGB;color-interpolation-filters:linearRGB;solid-color:#000000;solid-opacity:1;fill:url(#linearGradient4672);fill-opacity:1;fill-rule:evenodd;stroke:none;stroke-width:1px;stroke-linecap:butt;stroke-linejoin:miter;stroke-miterlimit:4;stroke-dasharray:none;stroke-dashoffset:0;stroke-opacity:1;color-rendering:auto;image-rendering:auto;shape-rendering:auto;text-rendering:auto;enable-background:accumulate"
         id="path4171" />
      <path
         sodipodi:nodetypes="cssccssccssss"
         inkscape:connector-curvature="0"
         id="path4174"
         d="m -1548.501,682.71898 c -27.4864,36.53265 -35.1409,31.31371 -36.5326,8.35032 -1.3918,-22.96339 10.09,-63.32329 10.09,-63.32329 l -16.7007,-2.78343 c 0,0 -1.3918,3.47929 -3.4793,13.22134 -9.3941,-21.57167 -36.3071,-18.27719 -56.0167,8.00239 -16.7007,22.26753 -26.1437,74.69594 16.3527,75.15289 27.8349,0.29931 33.7492,-21.22372 33.7492,-21.22372 2.7835,23.65925 21.2238,37.92438 60.8877,-9.04618 m -61.5835,-25.39891 c 5.2269,-23.8576 -25.4629,-48.78208 -46.2747,-7.30652 -14.5184,28.93323 -0.348,46.27469 10.7857,46.62262 18.1182,0.56619 28.1871,-5.98815 35.489,-39.3161 z"
         style="fill:url(#linearGradient4672);fill-opacity:1;fill-rule:evenodd;stroke:none;stroke-width:1px;stroke-linecap:butt;stroke-linejoin:miter;stroke-opacity:1" />
      <path
         inkscape:connector-curvature="0"
         id="path4195"
         d="m -1474.5494,574.74045 0,20.70169 -52.0157,0 0,-20.3539 -21.9196,0 0,20.3539 -19.0156,0 c -1.6561,4.9101 -2.9486,10.09496 -4.5231,18.71276 l 23.5387,0 0,95.89734 c 0,5.55022 5.2358,12.68521 10.786,12.68521 l 53.1091,0 5.9887,-18.07799 -47.9642,0 0,-90.50456 52.0157,0 0,78.27431 20.18,-60.91728 0,-17.35703 5.7499,0 5.2638,-15.8901 0.7813,-2.82266 -11.795,0 0,-20.70169 -20.18,0 z"
         style="fill:url(#linearGradient4672);fill-opacity:1;fill-rule:nonzero;stroke:none;stroke-width:1px;stroke-linecap:butt;stroke-linejoin:miter;stroke-opacity:1" />
    </g>
    <path
       style="color:#000000;clip-rule:nonzero;display:inline;overflow:visible;visibility:visible;opacity:1;isolation:auto;mix-blend-mode:normal;color-interpolation:sRGB;color-interpolation-filters:linearRGB;solid-color:#000000;solid-opacity:1;fill:#000000;fill-opacity:1;fill-rule:nonzero;stroke:none;stroke-width:1px;stroke-linecap:butt;stroke-linejoin:miter;stroke-miterlimit:4;stroke-dasharray:none;stroke-dashoffset:0;stroke-opacity:1;color-rendering:auto;image-rendering:auto;shape-rendering:auto;text-rendering:auto;enable-background:accumulate"
       d="m -1712.3847,594.5683 c -39.9377,112.17773 -74.0021,195.57689 -132.7339,193.81493 -58.7318,-1.76194 -32.8898,-43.46152 35.2391,-43.46152 l 312.5445,0.58552 c 18.2458,0.0342 -55.0675,34.63031 46.6394,33.37463 -96.3615,5.28933 -42.6111,-31.45926 -48.6916,-31.56096 -104.1689,-1.74243 -318.4876,2.38219 -334.5724,5.23594 -36.4136,6.46049 -26.4826,30.9204 12.3337,19.3815 36.3066,-10.79282 65.178,-68.79603 109.2412,-177.37004 z"
       id="path4213"
       inkscape:connector-curvature="0"
       sodipodi:nodetypes="cssscsssc" />
    <path
       inkscape:connector-curvature="0"
       id="path4162"
       d="m -1761.3523,553.35272 c 53.381,6.13372 110.129,52.5702 176.2637,18.86312 -11.3262,22.19625 -11.1573,29.25893 -3.7111,26.74072 -33.0287,64.36814 -81.4095,-67.85575 -172.5526,-9.02148 z"
       style="color:#000000;clip-rule:nonzero;display:inline;overflow:visible;visibility:visible;opacity:1;isolation:auto;mix-blend-mode:normal;color-interpolation:sRGB;color-interpolation-filters:linearRGB;solid-color:#000000;solid-opacity:1;fill:#000000;fill-opacity:1;fill-rule:evenodd;stroke:none;stroke-width:1px;stroke-linecap:butt;stroke-linejoin:miter;stroke-miterlimit:4;stroke-dasharray:none;stroke-dashoffset:0;stroke-opacity:1;color-rendering:auto;image-rendering:auto;shape-rendering:auto;text-rendering:auto;enable-background:accumulate"
       sodipodi:nodetypes="ccccc" />
    <path
       sodipodi:nodetypes="ccccc"
       transform="matrix(1,0,-0.00963575,1,3.1516848,0)"
       inkscape:connector-curvature="0"
       id="path4600"
       d="m -1411.5537,493.85102 -16.3972,33.05725 5.4427,7.6448 13.4294,-41.40915 z"
       style="fill:url(#linearGradient4624);fill-opacity:1;fill-rule:evenodd;stroke:none;stroke-width:1px;stroke-linecap:butt;stroke-linejoin:miter;stroke-opacity:1;filter:url(#filter4642)" />
    <path
       id="path4229"
       d="m -1886.1627,472.71047 c -2.809,0.0304 -5.5663,0.78247 -8.0046,2.1882 l -109.5605,63.16594 c -5.0624,2.91912 -8.1811,8.31321 -8.1815,14.15088 l 0,126.33312 c 0,5.83766 3.1191,11.23175 8.1815,14.15088 l 109.5605,63.16594 c 5.0629,2.91875 11.3005,2.91875 16.3636,0 l 109.5603,-63.16594 c 5.0625,-2.91913 8.1813,-8.31322 8.1817,-14.15088 l 0,-42.13058 c -10e-4,-9.45558 -7.3266,-17.12076 -16.3632,-17.12174 l -110.1182,0.046 0,34.64516 93.755,-0.44805 0,15.57492 -93.1973,53.73201 -93.1978,-53.73201 0,-107.46465 93.1975,-53.73232 93.1976,53.73232 0,15.5749 -20.8691,-0.44804 -68.9876,34.64547 106.2199,0.0457 c 9.0366,-9.6e-4 16.3622,-7.66584 16.3632,-17.12143 l 0,-42.13088 c -5e-4,-5.83766 -3.1192,-11.23175 -8.1817,-14.15088 l -109.5603,-63.16594 c -2.3746,-1.36899 -5.0555,-2.12022 -7.7967,-2.18475 -0.1876,-0.005 -0.3751,-0.006 -0.5623,-0.004 z m 0.1209,189.68455 -0.4164,48.48617 83.7862,-48.48617 -83.3698,0 z"
       style="color:#000000;font-style:normal;font-variant:normal;font-weight:normal;font-stretch:normal;font-size:medium;line-height:normal;font-family:sans-serif;text-indent:0;text-align:start;text-decoration:none;text-decoration-line:none;text-decoration-style:solid;text-decoration-color:#000000;letter-spacing:normal;word-spacing:normal;text-transform:none;direction:ltr;block-progression:tb;writing-mode:lr-tb;baseline-shift:baseline;text-anchor:start;white-space:normal;clip-rule:nonzero;display:inline;overflow:visible;visibility:visible;opacity:1;isolation:auto;mix-blend-mode:normal;color-interpolation:sRGB;color-interpolation-filters:linearRGB;solid-color:#000000;solid-opacity:1;fill:#000000;fill-opacity:1;fill-rule:evenodd;stroke:none;stroke-width:23;stroke-linecap:butt;stroke-linejoin:round;stroke-miterlimit:4;stroke-dasharray:none;stroke-dashoffset:0;stroke-opacity:1;color-rendering:auto;image-rendering:auto;shape-rendering:auto;text-rendering:auto;enable-background:accumulate"
       inkscape:connector-curvature="0" />
    <g
       id="g4569">
      <circle
         r="145.55106"
         cy="654.85535"
         cx="-2030.0179"
         id="path3336"
         style="color:#000000;clip-rule:nonzero;display:inline;overflow:visible;visibility:visible;opacity:1;isolation:auto;mix-blend-mode:normal;color-interpolation:sRGB;color-interpolation-filters:linearRGB;solid-color:#000000;solid-opacity:1;fill:url(#radialGradient4150);fill-opacity:1;fill-rule:evenodd;stroke:#000000;stroke-width:0.32083485;stroke-linecap:butt;stroke-linejoin:miter;stroke-miterlimit:4;stroke-dasharray:none;stroke-dashoffset:0;stroke-opacity:1;color-rendering:auto;image-rendering:auto;shape-rendering:auto;text-rendering:auto;enable-background:accumulate" />
      <circle
         style="color:#000000;clip-rule:nonzero;display:inline;overflow:visible;visibility:visible;opacity:1;isolation:auto;mix-blend-mode:normal;color-interpolation:sRGB;color-interpolation-filters:linearRGB;solid-color:#000000;solid-opacity:1;fill:url(#radialGradient4419);fill-opacity:1;fill-rule:evenodd;stroke:#000000;stroke-width:0.32083485;stroke-linecap:butt;stroke-linejoin:miter;stroke-miterlimit:4;stroke-dasharray:none;stroke-dashoffset:0;stroke-opacity:1;color-rendering:auto;image-rendering:auto;shape-rendering:auto;text-rendering:auto;enable-background:accumulate"
         id="circle3338"
         cx="-2064.2654"
         cy="654.85535"
         r="79.196899" />
      <text
         transform="matrix(-0.05250154,-0.99862084,0.99862084,-0.05250154,0,0)"
         sodipodi:linespacing="125%"
         id="text4140"
         y="-2047.6655"
         x="-593.69049"
         style="font-style:normal;font-weight:normal;font-size:148.27049255px;line-height:125%;font-family:sans-serif;letter-spacing:0px;word-spacing:0px;fill:#000000;fill-opacity:1;stroke:#000000;stroke-width:0.32083488;stroke-linecap:butt;stroke-linejoin:miter;stroke-miterlimit:4;stroke-dasharray:none;stroke-opacity:1"
         xml:space="preserve"><tspan
           style="stroke-width:0.32083488"
           y="-2047.6655"
           x="-593.69049"
           id="tspan4142"
           sodipodi:role="line">8</tspan></text>
      <ellipse
         ry="9.0234804"
         rx="20.980864"
         cy="579.41803"
         cx="-2062.1426"
         id="path4347"
         style="color:#000000;clip-rule:nonzero;display:inline;overflow:visible;visibility:visible;opacity:1;isolation:auto;mix-blend-mode:normal;color-interpolation:sRGB;color-interpolation-filters:linearRGB;solid-color:#000000;solid-opacity:1;fill:#ffffff;fill-opacity:1;fill-rule:evenodd;stroke:none;stroke-width:1px;stroke-linecap:butt;stroke-linejoin:miter;stroke-miterlimit:4;stroke-dasharray:none;stroke-dashoffset:0;stroke-opacity:1;color-rendering:auto;image-rendering:auto;shape-rendering:auto;text-rendering:auto;enable-background:accumulate" />
      <text
         xml:space="preserve"
         style="font-style:normal;font-weight:normal;font-size:148.27049255px;line-height:125%;font-family:sans-serif;letter-spacing:0px;word-spacing:0px;fill:#000000;fill-opacity:1;stroke:#000000;stroke-width:0.32083488;stroke-linecap:butt;stroke-linejoin:miter;stroke-miterlimit:4;stroke-dasharray:none;stroke-opacity:1;filter:url(#filter4565)"
         x="-593.69049"
         y="-2047.6655"
         id="text4561"
         sodipodi:linespacing="125%"
         transform="matrix(-0.05250154,-0.99862084,0.99862084,-0.05250154,0,0)"><tspan
           sodipodi:role="line"
           id="tspan4563"
           x="-593.69049"
           y="-2047.6655"
           style="stroke-width:0.32083488">8</tspan></text>
    </g>
    <path
       style="color:#000000;font-style:normal;font-variant:normal;font-weight:normal;font-stretch:normal;font-size:medium;line-height:normal;font-family:sans-serif;text-indent:0;text-align:start;text-decoration:none;text-decoration-line:none;text-decoration-style:solid;text-decoration-color:#000000;letter-spacing:normal;word-spacing:normal;text-transform:none;direction:ltr;block-progression:tb;writing-mode:lr-tb;baseline-shift:baseline;text-anchor:start;white-space:normal;clip-rule:nonzero;display:inline;overflow:visible;visibility:visible;opacity:1;isolation:auto;mix-blend-mode:normal;color-interpolation:sRGB;color-interpolation-filters:linearRGB;solid-color:#000000;solid-opacity:1;fill:#60e421;fill-opacity:1;fill-rule:evenodd;stroke:#000000;stroke-width:3.68960094;stroke-linecap:butt;stroke-linejoin:round;stroke-miterlimit:4;stroke-dasharray:none;stroke-dashoffset:0;stroke-opacity:1;color-rendering:auto;image-rendering:auto;shape-rendering:auto;text-rendering:auto;enable-background:accumulate"
       d="m -1886.9933,457.7598 c -2.809,0.0304 -5.5663,0.78246 -8.0046,2.1882 l -109.5604,63.16593 c -5.0625,2.91913 -8.1812,8.31322 -8.1816,14.15088 l 0,126.33311 c 0,5.83768 3.1191,11.23176 8.1816,14.1509 l 109.5604,63.16593 c 5.0629,2.91875 11.3005,2.91875 16.3636,0 l 109.5603,-63.16593 c 5.0625,-2.91914 8.1813,-8.31322 8.1817,-14.1509 l 0,-42.13056 c -10e-4,-9.45559 -7.3266,-17.12077 -16.3632,-17.12174 l -110.1182,0.046 0,34.64515 93.755,-0.44804 0,15.5749 -93.1973,53.73202 -93.1978,-53.73202 0,-107.46463 93.1975,-53.73233 93.1976,53.73233 0,15.57489 -20.8691,-0.44804 -68.9876,34.64547 106.2199,0.0457 c 9.0366,-9.6e-4 16.3622,-7.66583 16.3632,-17.12142 l 0,-42.13088 c -5e-4,-5.83767 -3.1192,-11.23176 -8.1817,-14.15089 l -109.5603,-63.16593 c -2.3746,-1.36899 -5.0555,-2.12022 -7.7967,-2.18475 -0.1876,-0.005 -0.3751,-0.006 -0.5623,-0.004 z m 0.1209,189.68454 -0.4164,48.48617 83.7862,-48.48617 -83.3698,0 z"
       id="path4164"
       inkscape:connector-curvature="0" />
    <g
       id="g4468"
       style="fill-opacity:1;fill:url(#radialGradient4586)">
      <path
         sodipodi:nodetypes="cscc"
         inkscape:connector-curvature="0"
         id="path4165"
         d="m -1694.0871,424.34418 c -3.0665,12.02229 8.1084,20.00912 19.3943,25.95686 11.754,6.19441 27.0977,2.30748 34.2442,-6.05594 -9.3885,19.40499 -25.7725,24.6444 -57.544,-7.51972"
         style="color:#000000;clip-rule:nonzero;display:inline;overflow:visible;visibility:visible;opacity:1;isolation:auto;mix-blend-mode:normal;color-interpolation:sRGB;color-interpolation-filters:linearRGB;solid-color:#000000;solid-opacity:1;fill:url(#radialGradient4586);fill-opacity:1;fill-rule:evenodd;stroke:none;stroke-width:1px;stroke-linecap:butt;stroke-linejoin:miter;stroke-miterlimit:4;stroke-dasharray:none;stroke-dashoffset:0;stroke-opacity:1;color-rendering:auto;image-rendering:auto;shape-rendering:auto;text-rendering:auto;enable-background:accumulate" />
      <path
         inkscape:connector-curvature="0"
         id="path4303"
         d="m -1678.7909,421.38023 a 5.4786222,4.718205 63.300953 0 0 -4.3903,3.71598 5.4786222,4.718205 63.300953 0 0 3.8851,6.69779 5.4786222,4.718205 63.300953 0 0 5.706,-3.46907 5.4786222,4.718205 63.300953 0 0 0.074,-0.69554 l -5.8594,-1.64798 4.3354,-2.68974 a 5.4786222,4.718205 63.300953 0 0 -2.434,-1.66488 5.4786222,4.718205 63.300953 0 0 -1.3161,-0.24656 z m 22.4773,8.09542 a 4.4367547,5.0055631 60.338028 0 0 -0.5284,0.0107 l 0.9597,3.10216 -4.6561,-1.30935 a 4.4367547,5.0055631 60.338028 0 0 -0.9231,1.38901 4.4367547,5.0055631 60.338028 0 0 2.5193,5.75467 4.4367547,5.0055631 60.338028 0 0 6.4137,-2.98079 4.4367547,5.0055631 60.338028 0 0 -2.5193,-5.75466 4.4367547,5.0055631 60.338028 0 0 -1.2658,-0.21174 z"
         style="color:#000000;clip-rule:nonzero;display:inline;overflow:visible;visibility:visible;opacity:1;isolation:auto;mix-blend-mode:normal;color-interpolation:sRGB;color-interpolation-filters:linearRGB;solid-color:#000000;solid-opacity:1;fill:url(#radialGradient4586);fill-opacity:1;fill-rule:evenodd;stroke:none;stroke-width:23;stroke-linecap:butt;stroke-linejoin:round;stroke-miterlimit:4;stroke-dasharray:none;stroke-dashoffset:0;stroke-opacity:1;color-rendering:auto;image-rendering:auto;shape-rendering:auto;text-rendering:auto;enable-background:accumulate" />
      <ellipse
         ry="5.9551883"
         rx="5.4634342"
         transform="matrix(0.89942748,0.43707003,-0.37786909,0.92585903,0,0)"
         style="color:#000000;clip-rule:nonzero;display:inline;overflow:visible;visibility:visible;opacity:1;isolation:auto;mix-blend-mode:normal;color-interpolation:sRGB;color-interpolation-filters:linearRGB;solid-color:#000000;solid-opacity:1;fill:url(#radialGradient4586);fill-opacity:1;fill-rule:evenodd;stroke:none;stroke-width:23;stroke-linecap:butt;stroke-linejoin:round;stroke-miterlimit:4;stroke-dasharray:none;stroke-dashoffset:0;stroke-opacity:1;color-rendering:auto;image-rendering:auto;shape-rendering:auto;text-rendering:auto;enable-background:accumulate"
         id="circle4305"
         cx="-1384.6942"
         cy="1103.4072" />
      <path
         inkscape:transform-center-y="-77.465738"
         inkscape:transform-center-x="-55.328291"
         sodipodi:nodetypes="ssscssscs"
         inkscape:connector-curvature="0"
         d="m -1674.5081,577.07628 c 93.7816,-6.75292 238.9826,-68.28469 213.939,-160.07724 -25.0436,-91.79256 -239.2246,-67.52857 -240.2586,19.03016 -0.661,55.3249 72.3118,67.72498 88.6342,15.6719 -23.8961,34.70206 -89.7634,20.35374 -83.8643,-18.47046 8.0791,-53.1725 88.6285,-75.56093 162.4606,-47.01569 73.832,28.54524 49.9454,159.51754 -139.1798,185.26423 -189.1252,25.74669 -113.4593,103.54646 -65.5923,51.21352 -65.9729,39.45959 -54.4613,-37.09638 63.8612,-45.61642 z"
         style="color:#000000;clip-rule:nonzero;display:inline;overflow:visible;visibility:visible;opacity:1;isolation:auto;mix-blend-mode:normal;color-interpolation:sRGB;color-interpolation-filters:linearRGB;solid-color:#000000;solid-opacity:1;fill:url(#radialGradient4586);fill-opacity:1;fill-rule:evenodd;stroke:none;stroke-width:1px;stroke-linecap:butt;stroke-linejoin:miter;stroke-miterlimit:4;stroke-dasharray:none;stroke-dashoffset:0;stroke-opacity:1;color-rendering:auto;image-rendering:auto;shape-rendering:auto;text-rendering:auto;enable-background:accumulate"
         id="path4227" />
    </g>
    <path
       inkscape:connector-curvature="0"
       id="path4550"
       d="m -1886.9933,457.7598 c -2.809,0.0304 -5.5663,0.78246 -8.0046,2.1882 l -109.5604,63.16593 c -5.0625,2.91913 -8.1812,8.31322 -8.1816,14.15088 l 0,126.33311 c 0,5.83768 3.1191,11.23176 8.1816,14.1509 l 109.5604,63.16593 c 5.0629,2.91875 11.3005,2.91875 16.3636,0 l 109.5603,-63.16593 c 5.0625,-2.91914 8.1813,-8.31322 8.1817,-14.1509 l 0,-42.13056 c -10e-4,-9.45559 -7.3266,-17.12077 -16.3632,-17.12174 l -110.1182,0.046 0,34.64515 93.755,-0.44804 0,15.5749 -93.1973,53.73202 -93.1978,-53.73202 0,-107.46463 93.1975,-53.73233 93.1976,53.73233 0,15.57489 -20.8691,-0.44804 -68.9876,34.64547 106.2199,0.0457 c 9.0366,-9.6e-4 16.3622,-7.66583 16.3632,-17.12142 l 0,-42.13088 c -5e-4,-5.83767 -3.1192,-11.23176 -8.1817,-14.15089 l -109.5603,-63.16593 c -2.3746,-1.36899 -5.0555,-2.12022 -7.7967,-2.18475 -0.1876,-0.005 -0.3751,-0.006 -0.5623,-0.004 z m 0.1209,189.68454 -0.4164,48.48617 83.7862,-48.48617 -83.3698,0 z"
       style="color:#000000;font-style:normal;font-variant:normal;font-weight:normal;font-stretch:normal;font-size:medium;line-height:normal;font-family:sans-serif;text-indent:0;text-align:start;text-decoration:none;text-decoration-line:none;text-decoration-style:solid;text-decoration-color:#000000;letter-spacing:normal;word-spacing:normal;text-transform:none;direction:ltr;block-progression:tb;writing-mode:lr-tb;baseline-shift:baseline;text-anchor:start;white-space:normal;clip-rule:nonzero;display:inline;overflow:visible;visibility:visible;opacity:1;isolation:auto;mix-blend-mode:normal;color-interpolation:sRGB;color-interpolation-filters:linearRGB;solid-color:#000000;solid-opacity:1;fill:none;fill-opacity:1;fill-rule:evenodd;stroke:#000000;stroke-width:3.68960094;stroke-linecap:butt;stroke-linejoin:round;stroke-miterlimit:4;stroke-dasharray:none;stroke-dashoffset:0;stroke-opacity:1;color-rendering:auto;image-rendering:auto;shape-rendering:auto;text-rendering:auto;enable-background:accumulate;filter:url(#filter4552)" />
  </g>
</svg>
