<?xml version="1.0" encoding="UTF-8" standalone="no"?>
<!-- Created with Inkscape (http://www.inkscape.org/) -->

<svg
   xmlns:dc="http://purl.org/dc/elements/1.1/"
   xmlns:cc="http://creativecommons.org/ns#"
   xmlns:rdf="http://www.w3.org/1999/02/22-rdf-syntax-ns#"
   xmlns:svg="http://www.w3.org/2000/svg"
   xmlns="http://www.w3.org/2000/svg"
   xmlns:sodipodi="http://sodipodi.sourceforge.net/DTD/sodipodi-0.dtd"
   xmlns:inkscape="http://www.inkscape.org/namespaces/inkscape"
   width="128"
   height="128"
   viewBox="0 0 128 128"
   id="svg2"
   version="1.1"
   inkscape:version="0.91 r13725"
   sodipodi:docname="ChaosSquad.svg"
   inkscape:export-filename="/home/frode/Sync/Creations/Games/OGTatt/Resources/Textures/Decals/ChaosSquad.png"
   inkscape:export-xdpi="180"
   inkscape:export-ydpi="180">
  <defs
     id="defs4" />
  <sodipodi:namedview
     id="base"
     pagecolor="#808080"
     bordercolor="#666666"
     borderopacity="1.0"
     inkscape:pageopacity="0"
     inkscape:pageshadow="2"
     inkscape:zoom="0.70710678"
     inkscape:cx="33.113706"
     inkscape:cy="81.538759"
     inkscape:document-units="px"
     inkscape:current-layer="layer1"
     showgrid="true"
     inkscape:showpageshadow="false"
     units="px"
     showguides="true"
     inkscape:guide-bbox="true"
     inkscape:snap-global="true"
     inkscape:window-width="1920"
     inkscape:window-height="1056"
     inkscape:window-x="0"
     inkscape:window-y="0"
     inkscape:window-maximized="1">
    <inkscape:grid
       type="xygrid"
       id="grid4245"
       spacingx="64"
       spacingy="64"
       empspacing="1"
       dotted="false" />
  </sodipodi:namedview>
  <metadata
     id="metadata7">
    <rdf:RDF>
      <cc:Work
         rdf:about="">
        <dc:format>image/svg+xml</dc:format>
        <dc:type
           rdf:resource="http://purl.org/dc/dcmitype/StillImage" />
        <dc:title></dc:title>
      </cc:Work>
    </rdf:RDF>
  </metadata>
  <g
     inkscape:label="Layer 1"
     inkscape:groupmode="layer"
     id="layer1"
     transform="translate(0,-924.36214)">
    <path
       style="fill:#000000;stroke:#ffffff;stroke-width:0.96255392;stroke-linecap:round;stroke-linejoin:round;stroke-opacity:1"
       d="m 9.5115884,976.53951 c 0,0 10.5695336,7.64803 10.9001706,7.84331 0.314466,0.18567 0.833575,0.17919 1.210714,-0.0131 0.696696,-0.35544 1.615279,-1.59455 2.111226,-2.8482 0.06605,-0.16695 0.216199,-0.30267 0.216199,-0.30267 0,0 20.616697,4.77083 22.119939,5.10793 -0.08441,0.64504 -0.106788,1.30643 -0.109044,1.95908 7.78e-4,5.96486 2.948385,11.54416 7.87527,14.90654 l -0.06393,0.1259 c -0.388122,0.7637 -8.936627,17.2252 -8.956263,17.247 -0.01241,0.013 -0.320224,-0.048 -0.686196,-0.1373 -0.896475,-0.2184 -2.265013,-0.2353 -2.844422,-0.036 -0.856212,0.2949 -1.255653,0.7504 -1.323512,1.5115 -0.06302,0.7025 -0.520758,11.5638 -0.520758,11.5638 0,0 9.600106,-6.8958 9.74962,-7.0913 0.69223,-0.9043 0.350197,-2.392 -0.823435,-3.5814 -0.300365,-0.3044 -0.635029,-0.6193 -0.742595,-0.6994 l -0.195519,-0.1447 0.951274,-1.6693 c 0.523167,-0.918 8.675119,-15.2361 8.726905,-15.3182 0.0014,0 0.0024,0 0.0038,-0.01 1.833852,0.7538 3.779377,1.2003 5.758405,1.3216 l 0.0188,0.1879 c 0.03311,0.3113 1.012037,18.0708 1.058431,19.2041 l 0.01693,0.4174 -0.642957,0.1636 c -1.395182,0.3564 -2.374869,0.8474 -3.169658,1.5849 -0.789267,0.7321 -1.20774,1.629 -1.109195,2.3819 0.02749,0.2102 7.967391,17.6023 7.967391,17.6023 0,0 6.375039,-18.0336 6.375039,-18.4595 0.004,-0.5441 -0.155168,-0.9015 -0.622275,-1.4082 -0.776503,-0.8425 -2.061071,-1.4466 -3.833296,-1.801 l -0.964435,-0.1937 -0.01879,-0.2444 c -0.0097,-0.1348 -0.817157,-18.7663 -0.840354,-19.142 l -0.03196,-0.5001 c 4.158529,-0.7175 7.934196,-2.8695 10.670812,-6.08178 -0.107442,0.36708 -0.182341,1.12408 -0.140999,1.57748 0.15834,1.7476 1.083367,2.9372 2.588744,3.3294 0.519779,0.1351 1.590075,0.1373 2.096187,0 0.572719,-0.1514 3.59135,-1.3146 3.647177,-1.4064 0.05872,-0.095 0.181201,-2.8702 0.150399,-3.4197 -0.100202,-1.80123 -1.392131,-3.36666 -3.120782,-3.78249 -0.504378,-0.12132 -1.464175,-0.10464 -1.947666,0.0338 -0.224853,0.0645 -0.609847,0.22716 -0.855395,0.36096 l -0.257558,0.13913 c 0.494194,-0.9249 0.906845,-1.89112 1.233272,-2.88766 0.300853,0.0403 2.125706,0.40858 13.362956,2.67334 15.652755,3.15469 16.124665,3.2768 16.124665,3.2768 0,0 -0.47941,3.22422 -0.47941,3.78632 l 0,0.5622 0.23124,-0.038 c 0.12761,-0.019 17.05337,-2.4196 17.05337,-2.4196 0,0 -13.79311,-8.72444 -14.71278,-9.34734 -0.17933,0 -1.37803,4.18674 -1.37803,4.18674 0,0 -6.62265,-1.47587 -14.695878,-3.29938 -8.048661,-1.81795 -14.610182,-3.29761 -14.669548,-3.3069 0.05642,-0.5742 0.08528,-1.15075 0.08648,-1.72771 -0.0043,-5.86968 -2.862428,-11.37074 -7.662833,-14.74851 l 14.310471,-26.91203 4.184852,1.93639 2.737263,-18.34305 -13.684433,12.26503 3.769375,2.39701 c 0,0 -14.828179,26.6313 -14.868825,26.70897 -1.91477,-0.77854 -3.949041,-1.22239 -6.014082,-1.31223 -0.06202,-0.97424 -0.475671,-5.27726 -0.475671,-5.55361 0,-0.10769 0.05492,-0.17708 0.16168,-0.20492 0.472296,-0.12353 1.299206,-0.62618 1.718309,-1.04528 1.283683,-1.28367 1.525269,-3.13239 0.599716,-4.60032 -0.221031,-0.35055 -4.401053,-4.65485 -4.401053,-4.65485 0,0 -3.910822,4.91327 -4.126573,5.3354 -0.327507,0.64078 -0.42089,1.15553 -0.319598,1.7559 0.233359,1.38319 1.482271,2.66245 3.088819,3.16026 l 0.400438,0.12409 0.047,1.32915 c 0.02586,0.73132 0.04512,2.05603 0.04512,2.94406 l 0,1.55475 c -4.208874,0.57701 -8.079348,2.6201 -10.930252,5.76967 l -0.124079,-0.0902 c -0.107566,-0.0784 -2.365863,-1.64932 -5.017689,-3.48926 -2.651913,-1.83991 -4.861438,-3.38052 -4.910528,-3.42533 -0.07132,-0.0648 -0.04678,-0.20245 0.122198,-0.66552 0.506035,-1.38646 0.670989,-3.19223 0.398557,-4.37474 -0.318047,-1.38038 -1.101518,-2.36737 -2.184545,-2.75229 -0.325094,-0.11554 -17.192492,-2.87451 -17.192492,-2.87451 0,0 6.794063,12.11593 7.303754,13.01892 0.77936,1.38074 1.00185,1.71626 1.398711,2.11123 1.849538,1.84081 4.999754,1.53217 7.386473,-0.72379 l 0.357197,-0.3384 5.04777,3.57573 4.933089,3.49301 c -0.501204,0.93158 -0.919546,1.90539 -1.250192,2.91023 -0.106829,0.008 -5.028042,-0.9314 -11.123891,-2.12626 l -11.17841,-2.19018 -0.04512,-1.10544 c -0.03357,-0.82906 -0.08179,-1.22154 -0.193638,-1.56979 -0.284128,-0.885 -0.741751,-1.40952 -1.376152,-1.5792 -0.307507,-0.0822 -13.4794581,2.55117 -13.4794581,2.55117 z"
       id="path4230"
       inkscape:connector-curvature="0"
       sodipodi:nodetypes="cccccccccccccccscccccccccccccccccccccccccccccccscscccccsccccccccccscsscssscsscccccccccscccccccccccc"
       inkscape:transform-center-x="-4.4635853"
       inkscape:transform-center-y="0.65294303" />
  </g>
</svg>
